<svg width="28" height="27" viewBox="0 0 28 27" fill="none" xmlns="http://www.w3.org/2000/svg">
<path d="M8.82324 9C8.82324 8.77622 8.91214 8.56161 9.07037 8.40338C9.2286 8.24514 9.44322 8.15625 9.66699 8.15625H14.167C14.3908 8.15625 14.6054 8.24514 14.7636 8.40338C14.9218 8.56161 15.0107 8.77622 15.0107 9C15.0107 9.22378 14.9218 9.43839 14.7636 9.59662C14.6054 9.75485 14.3908 9.84375 14.167 9.84375H9.66699C9.44322 9.84375 9.2286 9.75485 9.07037 9.59662C8.91214 9.43839 8.82324 9.22378 8.82324 9ZM8.82324 13.5C8.82324 13.2762 8.91214 13.0616 9.07037 12.9034C9.2286 12.7451 9.44322 12.6562 9.66699 12.6562H18.667C18.8908 12.6562 19.1054 12.7451 19.2636 12.9034C19.4218 13.0616 19.5107 13.2762 19.5107 13.5C19.5107 13.7238 19.4218 13.9384 19.2636 14.0966C19.1054 14.2549 18.8908 14.3438 18.667 14.3438H9.66699C9.44322 14.3438 9.2286 14.2549 9.07037 14.0966C8.91214 13.9384 8.82324 13.7238 8.82324 13.5Z" fill="#212121"/>
<path fill-rule="evenodd" clip-rule="evenodd" d="M11.8787 1.40625H16.4552C17.9976 1.40625 19.2081 1.40625 20.1801 1.485C21.1701 1.56713 21.988 1.73362 22.7282 2.11162C23.9455 2.73182 24.9352 3.72148 25.5554 4.93875C25.9334 5.679 26.0999 6.49688 26.1809 7.48688C26.2607 8.45888 26.2607 9.66937 26.2607 11.2118V12.7474C26.2607 14.49 26.2607 15.552 25.9997 16.4452C25.6947 17.4857 25.133 18.4327 24.3664 19.1994C23.5997 19.966 22.6527 20.5277 21.6122 20.8328C20.719 21.0938 19.657 21.0938 17.9144 21.0938H17.0639C16.0886 21.1003 15.1386 21.4049 14.3414 21.9667L14.2851 22.0061L11.3489 24.1042C9.65574 25.3125 7.43049 23.5665 8.20449 21.636C8.22865 21.576 8.23768 21.5109 8.23078 21.4465C8.22388 21.3822 8.20126 21.3205 8.16492 21.2669C8.12859 21.2134 8.07964 21.1696 8.02239 21.1394C7.96514 21.1092 7.90134 21.0935 7.83662 21.0938H7.16049C5.81127 21.0938 4.51731 20.5578 3.56326 19.6037C2.60922 18.6497 2.07324 17.3557 2.07324 16.0065V11.2118C2.07324 9.66937 2.07324 8.45888 2.15199 7.48688C2.23412 6.49688 2.40062 5.679 2.77862 4.93875C3.39881 3.72148 4.38848 2.73182 5.60574 2.11162C6.34599 1.73362 7.16387 1.56712 8.15387 1.48612C9.12587 1.40625 10.3364 1.40625 11.8787 1.40625ZM8.29112 3.168C7.40574 3.24 6.83424 3.3795 6.37187 3.61462C5.47182 4.07309 4.74008 4.80482 4.28162 5.70487C4.04537 6.16725 3.90699 6.73875 3.83499 7.62413C3.76187 8.51962 3.76074 9.66037 3.76074 11.25V16.0065C3.76074 16.9082 4.11893 17.7729 4.75651 18.4105C5.0722 18.7262 5.44699 18.9766 5.85946 19.1475C6.27194 19.3183 6.71403 19.4062 7.16049 19.4062H7.83662C8.17713 19.406 8.51252 19.4892 8.8134 19.6486C9.11428 19.808 9.37148 20.0388 9.56246 20.3207C9.75344 20.6026 9.87237 20.9271 9.90883 21.2656C9.9453 21.6042 9.89818 21.9465 9.77162 22.2626C9.62424 22.6294 10.0461 22.9601 10.3679 22.7306L13.3682 20.5875C14.4474 19.8269 15.7335 19.4147 17.0537 19.4062H17.749C19.7087 19.4062 20.5075 19.3972 21.1375 19.2127C21.9063 18.9872 22.6061 18.5722 23.1726 18.0056C23.7392 17.4391 24.1542 16.7393 24.3797 15.9705C24.5642 15.3405 24.5732 14.5417 24.5732 12.582V11.25C24.5732 9.66037 24.5732 8.51962 24.499 7.62413C24.427 6.73875 24.2875 6.16725 24.0524 5.70487C23.5942 4.80499 22.8629 4.07328 21.9632 3.61462C21.4997 3.37838 20.9282 3.24 20.0429 3.168C19.1474 3.09487 18.0066 3.09375 16.417 3.09375H11.917C10.3274 3.09375 9.18662 3.09375 8.29112 3.168Z" fill="#212121"/>
</svg>
