<svg width="272" height="240" viewBox="0 0 272 240" fill="none" xmlns="http://www.w3.org/2000/svg">
<rect x="0.5" y="0.5" width="271" height="189" rx="7.5" fill="#F6F9FB" stroke="#E47F46" stroke-dasharray="9 9"/>
<g opacity="0.2">
<path d="M170.92 63.8887H101.079C98.2744 63.8887 96 66.1629 96 68.968V121.031C96 123.836 98.2744 126.111 101.079 126.111H170.92C173.726 126.111 176 123.836 176 121.031V68.968C176 66.1629 173.726 63.8887 170.92 63.8887ZM170.92 68.968V105.909L160.91 96.8079C159.406 95.4402 157.092 95.4949 155.655 96.9336L145.524 107.063L125.548 83.2028C124.038 81.3996 121.272 81.3819 119.74 83.1634L101.079 104.85V68.968H170.92ZM149.333 82.3013C149.333 78.4435 152.459 75.3171 156.317 75.3171C160.175 75.3171 163.301 78.4435 163.301 82.3013C163.301 86.1591 160.175 89.2853 156.317 89.2853C152.46 89.2854 149.333 86.1591 149.333 82.3013Z" fill="black"/>
</g>
<path d="M56.2616 218.292H50.0516L48.4676 222H47.6396L52.9676 209.4H53.8676L59.7356 222H57.9896L56.2616 218.292ZM55.8836 217.482L53.0576 211.416H52.9856L50.3936 217.482H55.8836ZM69.7152 209.4V222H68.1852V220.542H68.1132C67.6572 221.658 66.7212 222.216 65.3052 222.216C64.7052 222.216 64.1532 222.108 63.6492 221.892C63.1452 221.664 62.7072 221.346 62.3352 220.938C61.9752 220.518 61.6932 220.02 61.4892 219.444C61.2852 218.856 61.1832 218.202 61.1832 217.482C61.1832 216.774 61.2852 216.132 61.4892 215.556C61.6932 214.98 61.9752 214.488 62.3352 214.08C62.7072 213.672 63.1452 213.36 63.6492 213.144C64.1532 212.916 64.7052 212.802 65.3052 212.802C65.5932 212.802 65.8752 212.832 66.1512 212.892C66.4392 212.952 66.7092 213.048 66.9612 213.18C67.2132 213.312 67.4352 213.486 67.6272 213.702C67.8312 213.906 67.9932 214.164 68.1132 214.476H68.1852V209.4H69.7152ZM68.1852 218.4V216.834C68.1852 216.342 68.1132 215.904 67.9692 215.52C67.8372 215.136 67.6572 214.812 67.4292 214.548C67.2012 214.272 66.9372 214.068 66.6372 213.936C66.3372 213.792 66.0192 213.72 65.6832 213.72C65.3112 213.72 64.9572 213.792 64.6212 213.936C64.2852 214.068 63.9852 214.29 63.7212 214.602C63.4692 214.902 63.2652 215.292 63.1092 215.772C62.9652 216.252 62.8932 216.834 62.8932 217.518C62.8932 218.19 62.9652 218.766 63.1092 219.246C63.2652 219.726 63.4692 220.116 63.7212 220.416C63.9732 220.716 64.2672 220.938 64.6032 221.082C64.9392 221.214 65.2992 221.28 65.6832 221.28C66.0312 221.28 66.3552 221.208 66.6552 221.064C66.9672 220.908 67.2312 220.704 67.4472 220.452C67.6752 220.188 67.8552 219.882 67.9872 219.534C68.1192 219.174 68.1852 218.796 68.1852 218.4ZM80.5785 209.4V222H79.0485V220.542H78.9765C78.5205 221.658 77.5845 222.216 76.1685 222.216C75.5685 222.216 75.0165 222.108 74.5125 221.892C74.0085 221.664 73.5705 221.346 73.1985 220.938C72.8385 220.518 72.5565 220.02 72.3525 219.444C72.1485 218.856 72.0465 218.202 72.0465 217.482C72.0465 216.774 72.1485 216.132 72.3525 215.556C72.5565 214.98 72.8385 214.488 73.1985 214.08C73.5705 213.672 74.0085 213.36 74.5125 213.144C75.0165 212.916 75.5685 212.802 76.1685 212.802C76.4565 212.802 76.7385 212.832 77.0145 212.892C77.3025 212.952 77.5725 213.048 77.8245 213.18C78.0765 213.312 78.2985 213.486 78.4905 213.702C78.6945 213.906 78.8565 214.164 78.9765 214.476H79.0485V209.4H80.5785ZM79.0485 218.4V216.834C79.0485 216.342 78.9765 215.904 78.8325 215.52C78.7005 215.136 78.5205 214.812 78.2925 214.548C78.0645 214.272 77.8005 214.068 77.5005 213.936C77.2005 213.792 76.8825 213.72 76.5465 213.72C76.1745 213.72 75.8205 213.792 75.4845 213.936C75.1485 214.068 74.8485 214.29 74.5845 214.602C74.3325 214.902 74.1285 215.292 73.9725 215.772C73.8285 216.252 73.7565 216.834 73.7565 217.518C73.7565 218.19 73.8285 218.766 73.9725 219.246C74.1285 219.726 74.3325 220.116 74.5845 220.416C74.8365 220.716 75.1305 220.938 75.4665 221.082C75.8025 221.214 76.1625 221.28 76.5465 221.28C76.8945 221.28 77.2185 221.208 77.5185 221.064C77.8305 220.908 78.0945 220.704 78.3105 220.452C78.5385 220.188 78.7185 219.882 78.8505 219.534C78.9825 219.174 79.0485 218.796 79.0485 218.4ZM92.1007 216.744V222H90.4627V209.4H94.6747C95.3707 209.4 95.9767 209.502 96.4927 209.706C97.0087 209.91 97.4347 210.186 97.7707 210.534C98.1187 210.87 98.3767 211.272 98.5447 211.74C98.7127 212.196 98.7967 212.676 98.7967 213.18C98.7967 213.708 98.7007 214.206 98.5087 214.674C98.3167 215.13 98.0287 215.538 97.6447 215.898C97.2727 216.246 96.8047 216.522 96.2407 216.726C95.6767 216.93 95.0287 217.032 94.2967 217.032C93.8647 217.032 93.4687 217.008 93.1087 216.96C92.7487 216.9 92.4127 216.828 92.1007 216.744ZM92.1007 210.192V216.006C92.3527 216.102 92.6347 216.168 92.9467 216.204C93.2587 216.228 93.6007 216.24 93.9727 216.24C94.5127 216.24 94.9747 216.15 95.3587 215.97C95.7427 215.79 96.0607 215.556 96.3127 215.268C96.5647 214.98 96.7447 214.662 96.8527 214.314C96.9727 213.954 97.0327 213.6 97.0327 213.252C97.0327 212.892 96.9667 212.532 96.8347 212.172C96.7147 211.8 96.5287 211.47 96.2767 211.182C96.0247 210.882 95.7067 210.642 95.3227 210.462C94.9387 210.282 94.4947 210.192 93.9907 210.192H92.1007ZM100.782 213H102.312V214.44H102.42C102.636 213.9 102.912 213.492 103.248 213.216C103.584 212.94 104.004 212.802 104.508 212.802C104.568 212.802 104.658 212.814 104.778 212.838C104.91 212.85 105.048 212.886 105.192 212.946C105.348 212.994 105.498 213.066 105.642 213.162C105.798 213.258 105.93 213.378 106.038 213.522L105.426 214.638C105.318 214.482 105.144 214.314 104.904 214.134C104.676 213.954 104.424 213.864 104.148 213.864C103.944 213.864 103.734 213.912 103.518 214.008C103.302 214.104 103.104 214.26 102.924 214.476C102.744 214.692 102.594 214.974 102.474 215.322C102.366 215.658 102.312 216.072 102.312 216.564V222H100.782V213ZM116.439 217.518C116.439 218.142 116.331 218.742 116.115 219.318C115.899 219.882 115.587 220.38 115.179 220.812C114.783 221.244 114.297 221.586 113.721 221.838C113.157 222.09 112.521 222.216 111.813 222.216C111.093 222.216 110.439 222.09 109.851 221.838C109.275 221.574 108.783 221.226 108.375 220.794C107.979 220.362 107.667 219.864 107.439 219.3C107.223 218.724 107.115 218.13 107.115 217.518C107.115 216.894 107.223 216.3 107.439 215.736C107.667 215.16 107.979 214.656 108.375 214.224C108.783 213.792 109.275 213.45 109.851 213.198C110.439 212.934 111.093 212.802 111.813 212.802C112.521 212.802 113.157 212.934 113.721 213.198C114.297 213.45 114.783 213.792 115.179 214.224C115.587 214.656 115.899 215.16 116.115 215.736C116.331 216.3 116.439 216.894 116.439 217.518ZM114.729 217.518C114.729 216.678 114.639 216 114.459 215.484C114.279 214.956 114.045 214.548 113.757 214.26C113.469 213.972 113.151 213.78 112.803 213.684C112.455 213.576 112.119 213.522 111.795 213.522C111.471 213.522 111.135 213.576 110.787 213.684C110.439 213.78 110.115 213.972 109.815 214.26C109.527 214.548 109.287 214.956 109.095 215.484C108.915 216 108.825 216.678 108.825 217.518C108.825 218.346 108.915 219.024 109.095 219.552C109.287 220.068 109.527 220.47 109.815 220.758C110.115 221.046 110.439 221.244 110.787 221.352C111.135 221.448 111.471 221.496 111.795 221.496C112.119 221.496 112.455 221.448 112.803 221.352C113.151 221.244 113.469 221.046 113.757 220.758C114.045 220.47 114.279 220.068 114.459 219.552C114.639 219.024 114.729 218.346 114.729 217.518ZM126.774 209.4V222H125.244V220.542H125.172C124.716 221.658 123.78 222.216 122.364 222.216C121.764 222.216 121.212 222.108 120.708 221.892C120.204 221.664 119.766 221.346 119.394 220.938C119.034 220.518 118.752 220.02 118.548 219.444C118.344 218.856 118.242 218.202 118.242 217.482C118.242 216.774 118.344 216.132 118.548 215.556C118.752 214.98 119.034 214.488 119.394 214.08C119.766 213.672 120.204 213.36 120.708 213.144C121.212 212.916 121.764 212.802 122.364 212.802C122.652 212.802 122.934 212.832 123.21 212.892C123.498 212.952 123.768 213.048 124.02 213.18C124.272 213.312 124.494 213.486 124.686 213.702C124.89 213.906 125.052 214.164 125.172 214.476H125.244V209.4H126.774ZM125.244 218.4V216.834C125.244 216.342 125.172 215.904 125.028 215.52C124.896 215.136 124.716 214.812 124.488 214.548C124.26 214.272 123.996 214.068 123.696 213.936C123.396 213.792 123.078 213.72 122.742 213.72C122.37 213.72 122.016 213.792 121.68 213.936C121.344 214.068 121.044 214.29 120.78 214.602C120.528 214.902 120.324 215.292 120.168 215.772C120.024 216.252 119.952 216.834 119.952 217.518C119.952 218.19 120.024 218.766 120.168 219.246C120.324 219.726 120.528 220.116 120.78 220.416C121.032 220.716 121.326 220.938 121.662 221.082C121.998 221.214 122.358 221.28 122.742 221.28C123.09 221.28 123.414 221.208 123.714 221.064C124.026 220.908 124.29 220.704 124.506 220.452C124.734 220.188 124.914 219.882 125.046 219.534C125.178 219.174 125.244 218.796 125.244 218.4ZM129.645 213H131.175V218.94C131.175 219.06 131.187 219.252 131.211 219.516C131.235 219.768 131.313 220.026 131.445 220.29C131.589 220.554 131.799 220.788 132.075 220.992C132.363 221.184 132.759 221.28 133.263 221.28C133.575 221.28 133.875 221.226 134.163 221.118C134.451 221.01 134.703 220.848 134.919 220.632C135.135 220.404 135.309 220.122 135.441 219.786C135.573 219.45 135.639 219.048 135.639 218.58V213H137.169V222H135.639V220.866H135.567L135.279 221.154C134.859 221.574 134.439 221.856 134.019 222C133.611 222.156 133.233 222.228 132.885 222.216C132.093 222.216 131.475 222.084 131.031 221.82C130.599 221.544 130.281 221.226 130.077 220.866C129.873 220.494 129.747 220.122 129.699 219.75C129.663 219.366 129.645 219.066 129.645 218.85V213ZM144.622 221.28C145.114 221.28 145.564 221.202 145.972 221.046C146.392 220.878 146.812 220.62 147.232 220.272L147.754 220.956C147.346 221.268 146.842 221.556 146.242 221.82C145.654 222.084 144.964 222.216 144.172 222.216C143.464 222.216 142.828 222.096 142.264 221.856C141.7 221.604 141.214 221.268 140.806 220.848C140.41 220.416 140.104 219.912 139.888 219.336C139.672 218.748 139.564 218.118 139.564 217.446C139.564 216.81 139.66 216.21 139.852 215.646C140.056 215.082 140.356 214.59 140.752 214.17C141.148 213.75 141.634 213.42 142.21 213.18C142.786 212.928 143.452 212.802 144.208 212.802C144.568 212.802 144.94 212.838 145.324 212.91C145.72 212.97 146.086 213.09 146.422 213.27C146.77 213.438 147.076 213.666 147.34 213.954C147.604 214.23 147.796 214.584 147.916 215.016H146.674C146.542 214.596 146.272 214.242 145.864 213.954C145.456 213.666 144.976 213.522 144.424 213.522C144.088 213.522 143.734 213.594 143.362 213.738C142.99 213.87 142.648 214.092 142.336 214.404C142.036 214.704 141.784 215.112 141.58 215.628C141.376 216.132 141.274 216.75 141.274 217.482C141.274 218.19 141.364 218.79 141.544 219.282C141.736 219.762 141.988 220.152 142.3 220.452C142.612 220.74 142.966 220.95 143.362 221.082C143.77 221.214 144.19 221.28 144.622 221.28ZM148.995 213.72V213H150.561V210.228H152.091V213H154.269V213.72H152.091V219.696C152.091 219.84 152.097 220.008 152.109 220.2C152.121 220.38 152.157 220.554 152.217 220.722C152.277 220.878 152.367 221.01 152.487 221.118C152.619 221.226 152.799 221.28 153.027 221.28C153.315 221.28 153.555 221.172 153.747 220.956C153.939 220.74 154.095 220.506 154.215 220.254L155.061 221.118C154.473 221.706 153.807 222 153.063 222C152.751 222 152.445 221.946 152.145 221.838C151.845 221.73 151.575 221.568 151.335 221.352C151.107 221.124 150.921 220.836 150.777 220.488C150.633 220.14 150.561 219.732 150.561 219.264V213.72H148.995ZM164.378 209.4H166.016V222H164.378V209.4ZM171.868 222H170.338V213H171.868V214.458H171.94C172.084 214.11 172.264 213.828 172.48 213.612C172.708 213.396 172.948 213.228 173.2 213.108C173.452 212.988 173.704 212.91 173.956 212.874C174.208 212.826 174.424 212.802 174.604 212.802C175 212.802 175.336 212.856 175.612 212.964C175.9 213.072 176.146 213.21 176.35 213.378C176.554 213.546 176.722 213.732 176.854 213.936C176.986 214.128 177.088 214.32 177.16 214.512H177.286C177.466 214.14 177.676 213.84 177.916 213.612C178.168 213.384 178.426 213.21 178.69 213.09C178.954 212.97 179.206 212.892 179.446 212.856C179.686 212.82 179.896 212.802 180.076 212.802C180.7 212.802 181.198 212.904 181.57 213.108C181.954 213.3 182.242 213.546 182.434 213.846C182.638 214.134 182.77 214.452 182.83 214.8C182.89 215.136 182.92 215.442 182.92 215.718V222H181.39V216.24C181.39 215.832 181.366 215.472 181.318 215.16C181.282 214.848 181.198 214.584 181.066 214.368C180.946 214.152 180.772 213.99 180.544 213.882C180.316 213.774 180.016 213.72 179.644 213.72C179.14 213.72 178.738 213.834 178.438 214.062C178.15 214.29 177.928 214.566 177.772 214.89C177.616 215.214 177.514 215.562 177.466 215.934C177.418 216.294 177.394 216.606 177.394 216.87V222H175.864V216.24C175.864 216.024 175.852 215.772 175.828 215.484C175.816 215.196 175.756 214.92 175.648 214.656C175.54 214.392 175.372 214.17 175.144 213.99C174.928 213.81 174.616 213.72 174.208 213.72C173.644 213.72 173.206 213.846 172.894 214.098C172.582 214.338 172.348 214.632 172.192 214.98C172.048 215.316 171.958 215.664 171.922 216.024C171.886 216.372 171.868 216.654 171.868 216.87V222ZM189.119 212.802C189.995 212.802 190.673 212.928 191.153 213.18C191.633 213.42 191.981 213.738 192.197 214.134C192.425 214.53 192.557 214.986 192.593 215.502C192.629 216.018 192.647 216.546 192.647 217.086V222H191.189V221.118C190.841 221.454 190.397 221.724 189.857 221.928C189.317 222.12 188.777 222.216 188.237 222.216C187.721 222.216 187.265 222.126 186.869 221.946C186.473 221.766 186.143 221.532 185.879 221.244C185.615 220.956 185.417 220.632 185.285 220.272C185.153 219.912 185.087 219.546 185.087 219.174C185.087 218.79 185.159 218.406 185.303 218.022C185.447 217.638 185.663 217.296 185.951 216.996C186.239 216.684 186.593 216.432 187.013 216.24C187.433 216.048 187.913 215.952 188.453 215.952C188.993 215.952 189.503 216.06 189.983 216.276C190.475 216.48 190.877 216.774 191.189 217.158V216.384C191.189 215.4 191.039 214.668 190.739 214.188C190.451 213.708 189.917 213.468 189.137 213.468C188.801 213.468 188.507 213.51 188.255 213.594C188.003 213.678 187.775 213.798 187.571 213.954C187.379 214.098 187.199 214.284 187.031 214.512C186.863 214.728 186.695 214.974 186.527 215.25L185.591 214.314C185.759 214.134 185.933 213.954 186.113 213.774C186.305 213.594 186.533 213.432 186.797 213.288C187.073 213.144 187.397 213.03 187.769 212.946C188.141 212.85 188.591 212.802 189.119 212.802ZM191.189 218.436C191.129 218.292 191.039 218.124 190.919 217.932C190.811 217.74 190.667 217.554 190.487 217.374C190.307 217.194 190.091 217.044 189.839 216.924C189.587 216.792 189.287 216.726 188.939 216.726C188.591 216.726 188.273 216.798 187.985 216.942C187.697 217.074 187.451 217.254 187.247 217.482C187.055 217.698 186.905 217.956 186.797 218.256C186.689 218.556 186.635 218.868 186.635 219.192C186.635 219.576 186.701 219.912 186.833 220.2C186.977 220.476 187.157 220.716 187.373 220.92C187.589 221.112 187.829 221.256 188.093 221.352C188.357 221.448 188.609 221.496 188.849 221.496C189.077 221.496 189.305 221.454 189.533 221.37C189.773 221.286 189.995 221.172 190.199 221.028C190.415 220.872 190.607 220.692 190.775 220.488C190.943 220.284 191.081 220.062 191.189 219.822V218.436ZM201.954 222.756V220.56H201.882C201.678 221.136 201.324 221.556 200.82 221.82C200.328 222.084 199.746 222.216 199.074 222.216C198.462 222.216 197.904 222.108 197.4 221.892C196.908 221.664 196.482 221.346 196.122 220.938C195.762 220.518 195.48 220.02 195.276 219.444C195.084 218.856 194.988 218.202 194.988 217.482C194.988 216.774 195.084 216.132 195.276 215.556C195.48 214.98 195.762 214.488 196.122 214.08C196.482 213.672 196.914 213.36 197.418 213.144C197.922 212.916 198.48 212.802 199.092 212.802C199.86 212.802 200.478 212.946 200.946 213.234C201.426 213.51 201.738 213.9 201.882 214.404H201.954V213H203.484V221.838C203.484 222.438 203.424 223.014 203.304 223.566C203.196 224.13 202.986 224.628 202.674 225.06C202.362 225.492 201.924 225.834 201.36 226.086C200.796 226.35 200.058 226.482 199.146 226.482C198.654 226.482 198.216 226.416 197.832 226.284C197.448 226.164 197.118 226.014 196.842 225.834C196.566 225.666 196.338 225.492 196.158 225.312C195.978 225.144 195.846 225.006 195.762 224.898L196.752 223.998C197.076 224.538 197.43 224.97 197.814 225.294C198.21 225.618 198.726 225.78 199.362 225.78C199.722 225.78 200.058 225.726 200.37 225.618C200.694 225.51 200.97 225.336 201.198 225.096C201.438 224.856 201.624 224.544 201.756 224.16C201.888 223.776 201.954 223.308 201.954 222.756ZM201.954 218.166V216.834C201.954 216.426 201.9 216.03 201.792 215.646C201.684 215.262 201.522 214.926 201.306 214.638C201.102 214.338 200.844 214.104 200.532 213.936C200.22 213.756 199.866 213.666 199.47 213.666C199.29 213.666 199.038 213.708 198.714 213.792C198.402 213.864 198.09 214.032 197.778 214.296C197.478 214.56 197.214 214.944 196.986 215.448C196.758 215.94 196.644 216.606 196.644 217.446C196.644 218.238 196.734 218.886 196.914 219.39C197.106 219.894 197.34 220.284 197.616 220.56C197.904 220.836 198.21 221.028 198.534 221.136C198.87 221.232 199.182 221.28 199.47 221.28C199.794 221.28 200.106 221.214 200.406 221.082C200.706 220.938 200.97 220.734 201.198 220.47C201.426 220.206 201.606 219.882 201.738 219.498C201.882 219.114 201.954 218.67 201.954 218.166ZM214.348 217.896H207.508C207.508 218.628 207.616 219.228 207.832 219.696C208.048 220.164 208.318 220.53 208.642 220.794C208.966 221.058 209.314 221.244 209.686 221.352C210.07 221.448 210.43 221.496 210.766 221.496C211.066 221.496 211.336 221.466 211.576 221.406C211.828 221.334 212.068 221.238 212.296 221.118C212.524 220.998 212.746 220.848 212.962 220.668C213.19 220.488 213.43 220.29 213.682 220.074L214.258 220.65C213.778 221.154 213.214 221.544 212.566 221.82C211.918 222.084 211.21 222.216 210.442 222.216C209.65 222.216 208.96 222.084 208.372 221.82C207.796 221.544 207.316 221.184 206.932 220.74C206.56 220.284 206.278 219.774 206.086 219.21C205.906 218.634 205.816 218.046 205.816 217.446C205.816 216.726 205.924 216.084 206.14 215.52C206.356 214.944 206.656 214.458 207.04 214.062C207.424 213.654 207.874 213.348 208.39 213.144C208.906 212.928 209.47 212.82 210.082 212.82C210.658 212.82 211.204 212.916 211.72 213.108C212.236 213.3 212.686 213.588 213.07 213.972C213.466 214.356 213.778 214.842 214.006 215.43C214.234 216.018 214.348 216.714 214.348 217.518V217.896ZM207.508 217.176H212.782C212.782 216.012 212.542 215.1 212.062 214.44C211.594 213.768 210.934 213.432 210.082 213.432C209.638 213.432 209.254 213.54 208.93 213.756C208.606 213.96 208.336 214.236 208.12 214.584C207.916 214.932 207.76 215.334 207.652 215.79C207.556 216.234 207.508 216.696 207.508 217.176ZM222.434 215.052H221.408C221.408 214.896 221.366 214.728 221.282 214.548C221.198 214.368 221.066 214.206 220.886 214.062C220.706 213.906 220.484 213.78 220.22 213.684C219.956 213.576 219.644 213.522 219.284 213.522C218.924 213.522 218.624 213.576 218.384 213.684C218.144 213.78 217.952 213.906 217.808 214.062C217.664 214.206 217.562 214.368 217.502 214.548C217.442 214.716 217.412 214.878 217.412 215.034C217.412 215.406 217.544 215.694 217.808 215.898C218.084 216.102 218.426 216.276 218.834 216.42C219.242 216.564 219.68 216.702 220.148 216.834C220.628 216.966 221.072 217.14 221.48 217.356C221.888 217.56 222.224 217.836 222.488 218.184C222.764 218.532 222.902 218.994 222.902 219.57C222.902 220.362 222.62 221.004 222.056 221.496C221.504 221.976 220.676 222.216 219.572 222.216C218.96 222.216 218.42 222.144 217.952 222C217.496 221.844 217.106 221.64 216.782 221.388C216.47 221.136 216.236 220.854 216.08 220.542C215.924 220.218 215.846 219.888 215.846 219.552H217.016C217.016 219.696 217.058 219.876 217.142 220.092C217.238 220.308 217.388 220.524 217.592 220.74C217.808 220.944 218.078 221.124 218.402 221.28C218.738 221.424 219.146 221.496 219.626 221.496C220.01 221.496 220.328 221.448 220.58 221.352C220.832 221.244 221.03 221.118 221.174 220.974C221.318 220.818 221.414 220.65 221.462 220.47C221.522 220.29 221.552 220.116 221.552 219.948C221.552 219.552 221.42 219.24 221.156 219.012C220.892 218.784 220.562 218.598 220.166 218.454C219.77 218.298 219.338 218.16 218.87 218.04C218.414 217.908 217.988 217.74 217.592 217.536C217.196 217.332 216.866 217.062 216.602 216.726C216.338 216.39 216.206 215.934 216.206 215.358C216.206 214.938 216.284 214.572 216.44 214.26C216.596 213.936 216.806 213.666 217.07 213.45C217.346 213.234 217.664 213.072 218.024 212.964C218.396 212.856 218.792 212.802 219.212 212.802C219.656 212.802 220.07 212.862 220.454 212.982C220.85 213.09 221.192 213.246 221.48 213.45C221.78 213.642 222.014 213.876 222.182 214.152C222.35 214.428 222.434 214.728 222.434 215.052Z" fill="#212121"/>
<path d="M99.8708 238.392C99.4308 238.024 99.0548 237.568 98.7428 237.024C98.4308 236.488 98.1908 235.9 98.0228 235.26C97.8548 234.62 97.7708 233.956 97.7708 233.268C97.7708 232.58 97.8548 231.916 98.0228 231.276C98.1908 230.636 98.4308 230.048 98.7428 229.512C99.0548 228.968 99.4308 228.512 99.8708 228.144L100.495 228.708C99.9268 229.204 99.4868 229.844 99.1748 230.628C98.8708 231.412 98.7188 232.292 98.7188 233.268C98.7188 234.236 98.8708 235.112 99.1748 235.896C99.4868 236.68 99.9268 237.324 100.495 237.828L99.8708 238.392ZM101.836 237V228.672H102.628L106.156 234.468H105.616L109.144 228.672H109.936V237H108.808V230.652L109.072 230.724L106.288 235.296H105.496L102.712 230.724L102.964 230.652V237H101.836ZM114.134 237.12C113.614 237.12 113.142 236.992 112.718 236.736C112.294 236.472 111.958 236.116 111.71 235.668C111.47 235.22 111.35 234.716 111.35 234.156C111.35 233.596 111.47 233.092 111.71 232.644C111.958 232.196 112.29 231.84 112.706 231.576C113.13 231.312 113.606 231.18 114.134 231.18C114.566 231.18 114.95 231.272 115.286 231.456C115.63 231.632 115.906 231.88 116.114 232.2C116.322 232.512 116.438 232.876 116.462 233.292V235.008C116.438 235.416 116.322 235.78 116.114 236.1C115.914 236.42 115.642 236.672 115.298 236.856C114.962 237.032 114.574 237.12 114.134 237.12ZM114.314 236.1C114.85 236.1 115.282 235.92 115.61 235.56C115.938 235.192 116.102 234.724 116.102 234.156C116.102 233.764 116.026 233.424 115.874 233.136C115.73 232.84 115.522 232.612 115.25 232.452C114.978 232.284 114.662 232.2 114.302 232.2C113.942 232.2 113.622 232.284 113.342 232.452C113.07 232.62 112.854 232.852 112.694 233.148C112.542 233.436 112.466 233.768 112.466 234.144C112.466 234.528 112.542 234.868 112.694 235.164C112.854 235.452 113.074 235.68 113.354 235.848C113.634 236.016 113.954 236.1 114.314 236.1ZM116.03 237V235.464L116.234 234.072L116.03 232.692V231.3H117.122V237H116.03ZM122.438 237L120.662 234.504L120.458 234.312L118.214 231.3H119.522L121.142 233.52L121.346 233.688L123.746 237H122.438ZM118.106 237L120.458 233.832L121.07 234.624L119.378 237H118.106ZM121.43 234.3L120.806 233.532L122.378 231.3H123.638L121.43 234.3ZM129.421 237.12C128.853 237.12 128.345 237.02 127.897 236.82C127.457 236.612 127.085 236.312 126.781 235.92L127.549 235.152C127.733 235.432 127.985 235.656 128.305 235.824C128.633 235.984 128.997 236.064 129.397 236.064C129.773 236.064 130.101 235.992 130.381 235.848C130.669 235.704 130.893 235.504 131.053 235.248C131.221 234.984 131.305 234.672 131.305 234.312C131.305 233.944 131.225 233.632 131.065 233.376C130.905 233.12 130.689 232.928 130.417 232.8C130.153 232.664 129.861 232.596 129.541 232.596C129.213 232.596 128.913 232.636 128.641 232.716C128.377 232.796 128.125 232.932 127.885 233.124L127.897 232.404C128.033 232.236 128.189 232.1 128.365 231.996C128.541 231.892 128.741 231.812 128.965 231.756C129.189 231.7 129.449 231.672 129.745 231.672C130.321 231.672 130.809 231.792 131.209 232.032C131.609 232.272 131.913 232.596 132.121 233.004C132.337 233.412 132.445 233.868 132.445 234.372C132.445 234.9 132.313 235.372 132.049 235.788C131.793 236.204 131.437 236.532 130.981 236.772C130.525 237.004 130.005 237.12 129.421 237.12ZM127.885 233.124L127.273 232.512L127.645 228.672H128.677L128.257 232.62L127.885 233.124ZM127.873 229.68L127.645 228.672H132.025V229.68H127.873ZM136.418 237V228.672H137.546V237H136.418ZM139.319 237V231.3H140.399V237H139.319ZM143.171 237V233.556C143.171 233.132 143.039 232.8 142.775 232.56C142.519 232.312 142.195 232.188 141.803 232.188C141.539 232.188 141.303 232.244 141.095 232.356C140.887 232.468 140.719 232.624 140.591 232.824C140.463 233.024 140.399 233.264 140.399 233.544L139.955 233.328C139.955 232.896 140.047 232.52 140.231 232.2C140.423 231.88 140.683 231.632 141.011 231.456C141.339 231.272 141.707 231.18 142.115 231.18C142.515 231.18 142.875 231.268 143.195 231.444C143.523 231.62 143.779 231.868 143.963 232.188C144.155 232.508 144.251 232.888 144.251 233.328V237H143.171ZM147.023 237V233.556C147.023 233.132 146.891 232.8 146.627 232.56C146.371 232.312 146.051 232.188 145.667 232.188C145.403 232.188 145.163 232.244 144.947 232.356C144.739 232.468 144.571 232.624 144.443 232.824C144.315 233.024 144.251 233.264 144.251 233.544L143.639 233.328C143.663 232.888 143.779 232.512 143.987 232.2C144.203 231.88 144.479 231.632 144.815 231.456C145.151 231.272 145.519 231.18 145.919 231.18C146.335 231.18 146.707 231.268 147.035 231.444C147.363 231.62 147.623 231.868 147.815 232.188C148.015 232.508 148.115 232.892 148.115 233.34V237H147.023ZM152.009 237.12C151.489 237.12 151.017 236.992 150.593 236.736C150.169 236.472 149.833 236.116 149.585 235.668C149.345 235.22 149.225 234.716 149.225 234.156C149.225 233.596 149.345 233.092 149.585 232.644C149.833 232.196 150.165 231.84 150.581 231.576C151.005 231.312 151.481 231.18 152.009 231.18C152.441 231.18 152.825 231.272 153.161 231.456C153.505 231.632 153.781 231.88 153.989 232.2C154.197 232.512 154.313 232.876 154.337 233.292V235.008C154.313 235.416 154.197 235.78 153.989 236.1C153.789 236.42 153.517 236.672 153.173 236.856C152.837 237.032 152.449 237.12 152.009 237.12ZM152.189 236.1C152.725 236.1 153.157 235.92 153.485 235.56C153.813 235.192 153.977 234.724 153.977 234.156C153.977 233.764 153.901 233.424 153.749 233.136C153.605 232.84 153.397 232.612 153.125 232.452C152.853 232.284 152.537 232.2 152.177 232.2C151.817 232.2 151.497 232.284 151.217 232.452C150.945 232.62 150.729 232.852 150.569 233.148C150.417 233.436 150.341 233.768 150.341 234.144C150.341 234.528 150.417 234.868 150.569 235.164C150.729 235.452 150.949 235.68 151.229 235.848C151.509 236.016 151.829 236.1 152.189 236.1ZM153.905 237V235.464L154.109 234.072L153.905 232.692V231.3H154.997V237H153.905ZM158.933 239.508C158.349 239.508 157.829 239.4 157.373 239.184C156.925 238.968 156.565 238.664 156.293 238.272L156.989 237.564C157.221 237.86 157.497 238.084 157.817 238.236C158.137 238.396 158.517 238.476 158.957 238.476C159.541 238.476 160.001 238.32 160.337 238.008C160.681 237.704 160.853 237.292 160.853 236.772V235.356L161.045 234.072L160.853 232.8V231.3H161.933V236.772C161.933 237.316 161.805 237.792 161.549 238.2C161.301 238.608 160.949 238.928 160.493 239.16C160.045 239.392 159.525 239.508 158.933 239.508ZM158.933 236.904C158.413 236.904 157.945 236.78 157.529 236.532C157.121 236.284 156.797 235.944 156.557 235.512C156.317 235.072 156.197 234.58 156.197 234.036C156.197 233.492 156.317 233.008 156.557 232.584C156.797 232.152 157.121 231.812 157.529 231.564C157.945 231.308 158.413 231.18 158.933 231.18C159.381 231.18 159.777 231.268 160.121 231.444C160.465 231.62 160.737 231.868 160.937 232.188C161.145 232.5 161.257 232.868 161.273 233.292V234.804C161.249 235.22 161.133 235.588 160.925 235.908C160.725 236.22 160.453 236.464 160.109 236.64C159.765 236.816 159.373 236.904 158.933 236.904ZM159.149 235.884C159.501 235.884 159.809 235.808 160.073 235.656C160.345 235.504 160.553 235.292 160.697 235.02C160.841 234.74 160.913 234.416 160.913 234.048C160.913 233.68 160.837 233.36 160.685 233.088C160.541 232.808 160.337 232.592 160.073 232.44C159.809 232.28 159.497 232.2 159.137 232.2C158.777 232.2 158.461 232.28 158.189 232.44C157.917 232.592 157.701 232.808 157.541 233.088C157.389 233.36 157.313 233.676 157.313 234.036C157.313 234.396 157.389 234.716 157.541 234.996C157.701 235.276 157.917 235.496 158.189 235.656C158.469 235.808 158.789 235.884 159.149 235.884ZM166.159 237.12C165.591 237.12 165.079 236.992 164.623 236.736C164.167 236.472 163.807 236.116 163.543 235.668C163.279 235.22 163.147 234.712 163.147 234.144C163.147 233.584 163.275 233.08 163.531 232.632C163.795 232.184 164.147 231.832 164.587 231.576C165.035 231.312 165.535 231.18 166.087 231.18C166.615 231.18 167.079 231.3 167.479 231.54C167.887 231.78 168.203 232.112 168.427 232.536C168.659 232.96 168.775 233.44 168.775 233.976C168.775 234.056 168.771 234.144 168.763 234.24C168.755 234.328 168.739 234.432 168.715 234.552H163.903V233.652H168.139L167.743 234C167.743 233.616 167.675 233.292 167.539 233.028C167.403 232.756 167.211 232.548 166.963 232.404C166.715 232.252 166.415 232.176 166.063 232.176C165.695 232.176 165.371 232.256 165.091 232.416C164.811 232.576 164.595 232.8 164.443 233.088C164.291 233.376 164.215 233.716 164.215 234.108C164.215 234.508 164.295 234.86 164.455 235.164C164.615 235.46 164.843 235.692 165.139 235.86C165.435 236.02 165.775 236.1 166.159 236.1C166.479 236.1 166.771 236.044 167.035 235.932C167.307 235.82 167.539 235.652 167.731 235.428L168.427 236.136C168.155 236.456 167.819 236.7 167.419 236.868C167.027 237.036 166.607 237.12 166.159 237.12ZM170.144 238.392L169.52 237.828C170.088 237.324 170.524 236.68 170.828 235.896C171.132 235.112 171.284 234.236 171.284 233.268C171.284 232.292 171.132 231.412 170.828 230.628C170.524 229.844 170.088 229.204 169.52 228.708L170.144 228.144C170.584 228.512 170.96 228.968 171.272 229.512C171.584 230.048 171.824 230.636 171.992 231.276C172.16 231.916 172.244 232.58 172.244 233.268C172.244 233.956 172.16 234.62 171.992 235.26C171.824 235.9 171.584 236.488 171.272 237.024C170.96 237.568 170.584 238.024 170.144 238.392Z" fill="#717171"/>
</svg>
