<svg width="63" height="63" viewBox="0 0 63 63" fill="none" xmlns="http://www.w3.org/2000/svg">
<g clip-path="url(#clip0_1952_11312)">
<path d="M49.5918 17.6198C49.2801 17.6198 48.9724 17.6027 48.6689 17.5708V23.4175C48.6689 23.9272 49.082 24.3404 49.5918 24.3404C50.1016 24.3404 50.5146 23.9272 50.5146 23.4175V17.5708C50.2081 17.6033 49.9001 17.6196 49.5918 17.6198Z" fill="#FED402"/>
<path d="M49.5924 17.7424C54.4918 17.7424 58.4636 13.7706 58.4636 8.87119C58.4636 3.97177 54.4918 0 49.5924 0C44.693 0 40.7212 3.97177 40.7212 8.87119C40.7212 13.7706 44.693 17.7424 49.5924 17.7424Z" fill="#FED402"/>
<path d="M44.397 8.87119C44.397 4.60208 47.413 1.03839 51.4302 0.19183C50.8259 0.0642945 50.21 4.74459e-06 49.5924 0C44.693 0 40.7212 3.97171 40.7212 8.87119C40.7212 13.7707 44.6929 17.7424 49.5924 17.7424C50.2227 17.7424 50.8372 17.6756 51.4303 17.5505C47.413 16.704 44.397 13.1403 44.397 8.87119Z" fill="#FAC600"/>
<path d="M51.215 7.97827H47.9716C47.7501 7.97804 47.5378 7.88997 47.3812 7.73339C47.2246 7.5768 47.1365 7.36449 47.1362 7.14303V7.0895C47.1365 6.86802 47.2246 6.65568 47.3812 6.49905C47.5378 6.34243 47.7501 6.25431 47.9716 6.25401H51.8711C52.3809 6.25401 52.7939 5.84082 52.7939 5.33116C52.7939 4.8215 52.3809 4.40831 51.8711 4.40831H50.5146V3.99118C50.5146 3.48152 50.1015 3.06833 49.5918 3.06833C49.082 3.06833 48.6689 3.48152 48.6689 3.99118V4.40831H47.9716C46.4932 4.40831 45.2905 5.61109 45.2905 7.0895V7.14315C45.2908 8.62131 46.4934 9.82397 47.9716 9.82397H51.215C51.6738 9.82397 52.0472 10.1973 52.0472 10.6561C52.0472 11.115 51.6738 11.4883 51.215 11.4883H47.2822C46.7724 11.4883 46.3593 11.9015 46.3593 12.4112C46.3593 12.9208 46.7724 13.334 47.2822 13.334H48.6689V13.751C48.6689 14.2607 49.082 14.6739 49.5918 14.6739C50.1015 14.6739 50.5146 14.2607 50.5146 13.751V13.334H51.215C52.6916 13.334 53.8929 12.1327 53.8929 10.6561C53.8929 9.17957 52.6916 7.97827 51.215 7.97827Z" fill="#D7AA02"/>
<path d="M29.0723 16.317V18.4166H29.8031C31.5009 18.4166 32.8821 19.7978 32.8821 21.4956V22.8867H34.3173C35.0335 22.8867 35.6918 23.1378 36.2102 23.5559V18.1835C36.2102 14.1328 32.9265 10.8492 28.8759 10.8492H26.9932C28.2854 12.3062 29.0723 14.221 29.0723 16.317Z" fill="#554E56"/>
<path d="M14.3383 22.8867H15.7736V21.4955C15.7736 19.7977 17.1549 18.4165 18.8526 18.4165H29.1954V16.317C29.1954 11.6917 25.4458 7.94193 20.8204 7.94193H17.5551C14.733 7.94193 12.4453 10.2296 12.4453 13.0517V23.5557C12.981 23.1224 13.6493 22.8862 14.3383 22.8867Z" fill="#685E68"/>
<path d="M14.3383 22.8867H15.7736V21.4955C15.7736 20.6501 16.1163 19.8834 16.6698 19.3263V13.0517C16.6698 10.3723 18.7323 8.17621 21.356 7.96075C21.1777 7.94884 20.9991 7.94256 20.8204 7.94193H17.5551C14.733 7.94193 12.4453 10.2296 12.4453 13.0517V23.5557C12.981 23.1224 13.6493 22.8862 14.3383 22.8867Z" fill="#554E56"/>
<path d="M11.4248 39.4025C11.3529 39.5365 11.2461 39.6485 11.1156 39.7266C10.9851 39.8048 10.8359 39.8461 10.6838 39.8462H7.80601V42.724C7.80601 43.3412 7.38962 43.8914 6.79346 44.0618L6.70412 44.0873V59.6944C6.70412 59.7334 6.70253 59.7722 6.70117 59.8109H36.399L36.5221 58.5502V39.4025H11.4248Z" fill="#C4E2FF"/>
<path d="M11.4248 39.4026C11.3529 39.5366 11.246 39.6486 11.1156 39.7268C10.9851 39.8049 10.8359 39.8462 10.6838 39.8463H7.80601V42.7241C7.80601 43.3413 7.38962 43.8915 6.79346 44.0619L6.70412 44.0874V59.6945C6.70412 59.7335 6.70253 59.7723 6.70117 59.8111H11.3131V43.0024C11.3131 41.0143 12.9248 39.4025 14.9128 39.4025L11.4248 39.4026Z" fill="#B3DAFE"/>
<path d="M49.2075 36.2826V32.1684C49.2075 29.703 51.2132 27.6974 53.6786 27.6974C56.1439 27.6974 58.1496 29.703 58.1496 32.1684V36.2826H59.9953V32.1684C59.9953 28.6853 57.1616 25.8517 53.6786 25.8517C50.1955 25.8517 47.3618 28.6853 47.3618 32.1684V36.2826H49.2075Z" fill="#554E56"/>
<path d="M61.9671 36.1601H57.1177L56.9946 36.8908V59.0809L57.1177 59.8113H61.9671C62.0746 59.8113 62.1811 59.7901 62.2805 59.7489C62.3799 59.7078 62.4702 59.6474 62.5462 59.5713C62.6223 59.4953 62.6826 59.405 62.7238 59.3056C62.7649 59.2062 62.7861 59.0997 62.7861 58.9922V36.9791C62.7861 36.7618 62.6998 36.5535 62.5462 36.3999C62.3926 36.2464 62.1843 36.1601 61.9671 36.1601Z" fill="#FD4755"/>
<path d="M36.3984 59.8113H57.1178V36.1601H37.2176C37.0003 36.1601 36.792 36.2464 36.6384 36.4C36.4847 36.5536 36.3984 36.7619 36.3984 36.9792V59.8113Z" fill="#FE646F"/>
<path d="M40.4414 39.0893V36.1601H37.2176C37.0003 36.1601 36.792 36.2464 36.6384 36.4C36.4847 36.5536 36.3984 36.7619 36.3984 36.9792V59.8114H40.6968V39.7256C40.5328 39.5544 40.4413 39.3264 40.4414 39.0893Z" fill="#FD4755"/>
<path d="M52.1515 40.0116C51.9068 40.0116 51.672 39.9144 51.499 39.7413C51.3259 39.5682 51.2287 39.3335 51.2287 39.0888V32.1684C51.2287 29.703 49.223 27.6973 46.7577 27.6973C44.2923 27.6973 42.2866 29.703 42.2866 32.1684V39.0888C42.2866 39.5984 41.8736 40.0116 41.3638 40.0116C40.854 40.0116 40.4409 39.5984 40.4409 39.0888V32.1684C40.4409 28.6853 43.2746 25.8516 46.7577 25.8516C50.2407 25.8516 53.0744 28.6853 53.0744 32.1684V39.0888C53.0744 39.3335 52.9772 39.5682 52.8041 39.7413C52.631 39.9144 52.3963 40.0116 52.1515 40.0116Z" fill="#685E68"/>
<path d="M46.7577 53.3489C49.7366 53.3489 52.1515 50.934 52.1515 47.955C52.1515 44.976 49.7366 42.5611 46.7577 42.5611C43.7787 42.5611 41.3638 44.976 41.3638 47.955C41.3638 50.934 43.7787 53.3489 46.7577 53.3489Z" fill="white"/>
<path d="M44.4605 47.955C44.4605 45.5144 46.0819 43.4533 48.3059 42.7878C47.8036 42.6373 47.282 42.561 46.7577 42.5611C43.7787 42.5611 41.3638 44.976 41.3638 47.955C41.3638 50.934 43.7787 53.3489 46.7577 53.3489C47.296 53.3489 47.8155 53.269 48.3059 53.1222C46.0819 52.4567 44.4605 50.3956 44.4605 47.955Z" fill="#F3F0F3"/>
<path d="M24.5153 43.3023C24.4631 43.3469 24.3968 43.3714 24.3282 43.3714C24.2596 43.3714 24.1933 43.3469 24.1411 43.3023L23.4053 42.6737V59.8111H25.251V42.6737L24.5153 43.3023Z" fill="#8AC9FE"/>
<path d="M30.8527 38.4709L28.2616 36.8539C27.5252 37.1138 26.7501 37.2465 25.9692 37.2462H22.6858C21.905 37.2465 21.1298 37.1138 20.3935 36.8539L17.8023 38.4709C17.752 38.5024 17.7104 38.5461 17.6816 38.598C17.6528 38.6499 17.6377 38.7082 17.6377 38.7676V46.1954C17.6377 46.4888 17.9772 46.6518 18.206 46.4685L24.1087 41.7408C24.1708 41.6911 24.2479 41.664 24.3274 41.664C24.4069 41.664 24.484 41.6911 24.546 41.7408L30.4487 46.4685C30.6777 46.6518 31.0171 46.4889 31.0171 46.1954V38.7676C31.0172 38.7082 31.0021 38.6499 30.9734 38.5979C30.9446 38.546 30.9031 38.5023 30.8527 38.4709Z" fill="#B3DAFE"/>
<path d="M21.1248 37.0662C21.1284 37.0671 21.1322 37.0676 21.1358 37.0684C20.8845 37.0108 20.6367 36.9391 20.3935 36.8539L17.8023 38.4709C17.752 38.5024 17.7104 38.5461 17.6816 38.598C17.6528 38.6499 17.6377 38.7082 17.6377 38.7676V46.1954C17.6377 46.4888 17.9772 46.6518 18.206 46.4685L19.7204 45.2556V39.8404C19.7204 39.7811 19.7354 39.7227 19.7642 39.6708C19.793 39.6189 19.8345 39.5752 19.8849 39.5438L21.1247 38.7701L21.1248 37.0662Z" fill="#8AC9FE"/>
<path d="M15.7739 30.334V22.7637H14.3385C12.6024 22.7637 11.1948 24.1712 11.1948 25.9074V27.4507C11.1948 29.1868 12.6024 30.5944 14.3385 30.5944H15.7804C15.7772 30.5077 15.7739 30.4212 15.7739 30.334Z" fill="#F6A96C"/>
<path d="M34.3173 22.7637H32.8821V30.334C32.8821 30.4212 32.8788 30.5078 32.8755 30.5944H34.3173C36.0535 30.5944 37.4611 29.1868 37.4611 27.4507V25.9074C37.4611 24.1712 36.0535 22.7637 34.3173 22.7637ZM25.9694 37.2467H22.686C22.1605 37.2463 21.6368 37.1859 21.125 37.0668V40.6982C21.125 40.7576 21.1379 40.8163 21.1627 40.8702C21.1876 40.9242 21.2238 40.9721 21.269 41.0107L24.0607 43.3957C24.1351 43.4593 24.2297 43.4942 24.3276 43.4942C24.4255 43.4942 24.5201 43.4593 24.5946 43.3957L27.3864 41.0107C27.4315 40.9721 27.4678 40.9242 27.4927 40.8703C27.5175 40.8163 27.5304 40.7576 27.5305 40.6982V37.0668C27.0186 37.186 26.4949 37.2463 25.9694 37.2467Z" fill="#FFBD86"/>
<path d="M24.0086 41.011C23.9634 40.9724 23.9272 40.9245 23.9023 40.8706C23.8775 40.8167 23.8646 40.758 23.8646 40.6986V37.2471H22.686C22.1605 37.2467 21.6368 37.1864 21.125 37.0672V40.6987C21.125 40.7581 21.1379 40.8168 21.1627 40.8707C21.1876 40.9246 21.2238 40.9725 21.269 41.0111L24.0607 43.3961C24.1351 43.4597 24.2297 43.4946 24.3276 43.4946C24.4255 43.4946 24.5201 43.4597 24.5946 43.3961L25.6974 42.454L24.0086 41.011Z" fill="#F6A96C"/>
<path d="M25.97 37.3696H22.6866C18.8009 37.3696 15.6509 34.2196 15.6509 30.3339V21.4954C15.6509 19.727 17.0845 18.2934 18.8529 18.2934H29.8036C31.572 18.2934 33.0057 19.727 33.0057 21.4954V30.3339C33.0057 34.2196 29.8557 37.3696 25.97 37.3696Z" fill="#FED2A4"/>
<path d="M18.8222 30.3339V21.4954C18.8222 19.727 20.2558 18.2934 22.0242 18.2934H18.8529C17.0845 18.2934 15.6509 19.727 15.6509 21.4954V30.3339C15.6509 34.2196 18.8009 37.3696 22.6866 37.3696H25.8579C21.9722 37.3696 18.8222 34.2196 18.8222 30.3339Z" fill="#FFBD86"/>
<path d="M19.7935 26.2541C19.5487 26.2541 19.314 26.1568 19.1409 25.9838C18.9678 25.8107 18.8706 25.576 18.8706 25.3312V23.7677C18.8706 23.258 19.2837 22.8448 19.7935 22.8448C20.3032 22.8448 20.7163 23.258 20.7163 23.7677V25.3312C20.7163 25.576 20.6191 25.8107 20.446 25.9838C20.2729 26.1568 20.0382 26.2541 19.7935 26.2541ZM28.8619 26.2541C28.6171 26.2541 28.3824 26.1568 28.2093 25.9838C28.0363 25.8107 27.939 25.576 27.939 25.3312V23.7677C27.939 23.258 28.3521 22.8448 28.8619 22.8448C29.3717 22.8448 29.7847 23.258 29.7847 23.7677V25.3312C29.7847 25.576 29.6875 25.8107 29.5144 25.9838C29.3414 26.1568 29.1066 26.2541 28.8619 26.2541ZM24.3277 34.0759C23.1288 34.0759 21.9299 33.6195 21.0172 32.7069C20.8454 32.5336 20.7492 32.2992 20.7497 32.0552C20.7503 31.8111 20.8475 31.5772 21.0201 31.4047C21.1927 31.2321 21.4266 31.1349 21.6706 31.1344C21.9147 31.1339 22.149 31.23 22.3223 31.4019C22.8584 31.9381 23.5707 32.2334 24.3276 32.2334C25.0846 32.2334 25.7968 31.9381 26.333 31.4019C26.5063 31.23 26.7407 31.1339 26.9847 31.1344C27.2288 31.1349 27.4627 31.2321 27.6353 31.4047C27.8079 31.5772 27.9051 31.8111 27.9056 32.0552C27.9061 32.2992 27.81 32.5336 27.6382 32.7069C26.7254 33.6195 25.5266 34.0759 24.3277 34.0759ZM24.3269 30.0065C24.1274 30.0066 23.9333 29.9418 23.7739 29.8219L22.5231 28.8838C22.3436 28.75 22.1924 28.5818 22.0783 28.3891C21.9642 28.1965 21.8895 27.983 21.8584 27.7613C21.8261 27.5397 21.8381 27.3139 21.8937 27.0969C21.9493 26.88 22.0474 26.6762 22.1823 26.4975L23.5895 24.6212C23.7363 24.4254 23.9549 24.296 24.1972 24.2614C24.4395 24.2268 24.6856 24.2898 24.8814 24.4367C25.0773 24.5835 25.2067 24.8021 25.2413 25.0444C25.2759 25.2867 25.2129 25.5329 25.066 25.7287L23.7435 27.4919L24.8814 28.3454C25.0365 28.4616 25.1509 28.6237 25.2087 28.8087C25.2664 28.9937 25.2645 29.1921 25.2031 29.3759C25.1417 29.5597 25.0241 29.7195 24.8668 29.8327C24.7095 29.9459 24.5206 30.0067 24.3269 30.0065Z" fill="#CA6E59"/>
<path d="M6.41308 44.1154H1.72992C0.962354 44.1154 0.337891 43.491 0.337891 42.7234V41.7666H0.214844V59.6938C0.214967 61.5194 1.69497 62.9994 3.52062 62.9994C5.34627 62.9994 6.82628 61.5194 6.82628 59.6938V44.0528C6.6925 44.0944 6.55319 44.1155 6.41308 44.1154Z" fill="#C4E2FF"/>
<path d="M3.46636 59.6938V44.2385H1.72992C0.896646 44.2385 0.214844 43.5567 0.214844 42.7234V59.6938C0.214844 61.5195 1.69485 62.9995 3.5205 62.9995C4.11174 62.9995 4.66619 62.8436 5.14632 62.5716C4.14361 62.004 3.46636 60.9282 3.46636 59.6938Z" fill="#B3DAFE"/>
<path d="M10.6829 25.3688H3.10726C2.98064 25.3688 2.85526 25.3938 2.73828 25.4422C2.6213 25.4907 2.51501 25.5617 2.42547 25.6512C2.33594 25.7408 2.26492 25.8471 2.21646 25.964C2.16801 26.081 2.14307 26.2064 2.14307 26.333V34.4449H6.41292C7.18048 34.4449 7.80494 35.0694 7.80494 35.8369V39.9691H10.6828C10.9385 39.9691 11.1837 39.8675 11.3646 39.6867C11.5454 39.5059 11.647 39.2606 11.647 39.0049V26.333C11.647 26.2064 11.6221 26.081 11.5736 25.964C11.5252 25.8471 11.4542 25.7408 11.3647 25.6512C11.2751 25.5617 11.1689 25.4907 11.0519 25.4422C10.9349 25.3937 10.8095 25.3688 10.6829 25.3688Z" fill="#0593FC"/>
<path d="M4.18392 34.4449V26.333C4.18392 26.0773 4.28551 25.8321 4.46633 25.6512C4.64715 25.4704 4.8924 25.3688 5.14812 25.3688H3.10726C2.85154 25.3688 2.60629 25.4704 2.42547 25.6512C2.24465 25.8321 2.14307 26.0773 2.14307 26.333V34.4449H4.18392Z" fill="#0182FC"/>
<path d="M6.41331 34.4449C6.54226 34.4449 6.66666 34.4638 6.78516 34.4968V25.3688H4.93945V34.4449H6.41331Z" fill="#554E56"/>
<path d="M6.41308 44.239H1.72992C0.896646 44.239 0.214844 43.5572 0.214844 42.724V35.837C0.214844 35.0038 0.896646 34.322 1.72992 34.322H6.41308C7.24636 34.322 7.92816 35.0038 7.92816 35.837V42.724C7.92816 43.5572 7.24636 44.239 6.41308 44.239Z" fill="#FED2A4"/>
<path d="M3.48629 42.7242V35.8373C3.48629 35.004 4.16809 34.3222 5.00137 34.3222H1.72992C0.896646 34.3222 0.214844 35.004 0.214844 35.8373V42.7242C0.214844 43.5575 0.896646 44.2393 1.72992 44.2393H5.00137C4.16809 44.2394 3.48629 43.5576 3.48629 42.7242Z" fill="#FFBD86"/>
</g>
<defs>
<clipPath id="clip0_1952_11312">
<rect width="63" height="63" fill="white"/>
</clipPath>
</defs>
</svg>
