<svg width="59" height="59" viewBox="0 0 59 59" fill="none" xmlns="http://www.w3.org/2000/svg">
<path d="M31.4241 28.774V58.8848L7.44385 56.5686V35.7803L25.5356 34.6625L31.4241 28.774Z" fill="#FECE66"/>
<path d="M18.4491 54.4367H18.3569L11.4544 53.7684C10.9243 53.7223 10.5325 53.2498 10.5901 52.7197C10.6362 52.1896 11.1202 51.8094 11.6387 51.8555L18.5413 52.5238C19.0713 52.5699 19.4631 53.0424 19.4055 53.5725C19.3594 54.068 18.9331 54.4367 18.4491 54.4367ZM14.8077 50.1039H14.7155L11.4544 49.7812C10.9243 49.7352 10.5325 49.2627 10.5901 48.7326C10.6362 48.2025 11.1202 47.8107 11.6387 47.8684L14.8999 48.1795C15.4299 48.2256 15.8217 48.698 15.7641 49.2281C15.718 49.7236 15.3032 50.1039 14.8077 50.1039Z" fill="#70C9E9"/>
<path d="M51.2561 35.2157V45.0106C50.8989 44.953 50.5302 44.9184 50.1499 44.9184C46.3817 44.9184 43.328 47.9721 43.328 51.7403C43.328 53.9643 44.3882 55.9348 46.036 57.1793L31.4243 58.8848V28.774L36.8979 34.2477C41.6917 34.5703 46.4739 34.9045 51.2561 35.2157Z" fill="#F5B540"/>
<path d="M31.4243 28.774L25.5358 34.6625L7.44404 35.7803L2.03955 36.1145L7.44404 30.71L31.4243 28.774ZM56.0614 35.5383C54.4597 35.4346 52.8579 35.3309 51.2561 35.2157C46.4739 34.9045 41.6802 34.5703 36.8979 34.2477L31.4243 28.774L51.2561 30.7561C52.8579 32.3463 54.4597 33.9481 56.0614 35.5383Z" fill="#FFD88A"/>
<path d="M29.3731 0.311131L31.4473 4.50566C31.5049 4.60937 31.5971 4.69004 31.7123 4.70156L36.3447 5.36992C36.6328 5.41601 36.7596 5.77324 36.5406 5.98066L33.1873 9.25332C33.1067 9.33398 33.0606 9.44922 33.0836 9.57598L33.8787 14.1854C33.9248 14.4734 33.6252 14.7039 33.3602 14.5656L29.2233 12.3877C29.1196 12.3301 28.9928 12.3301 28.8891 12.3877L24.7522 14.5656C24.4871 14.7039 24.1875 14.485 24.2336 14.1854L25.0287 9.57598C25.0518 9.46074 25.0057 9.34551 24.925 9.25332L21.5602 5.99219C21.3528 5.78476 21.468 5.42754 21.7561 5.38144L26.3885 4.71308C26.5037 4.70156 26.6074 4.6209 26.6535 4.51719L28.7278 0.322655C28.866 0.0460923 29.2348 0.0460923 29.3731 0.311131ZM12.5373 7.47871L13.7473 9.91016C13.7819 9.96777 13.8395 10.0139 13.9086 10.0254L16.5936 10.4172C16.7664 10.4402 16.8356 10.6477 16.7088 10.7744L14.7498 12.6527C14.7037 12.6988 14.6807 12.768 14.6922 12.8371L15.1531 15.5105C15.1877 15.6834 15.0033 15.8102 14.8535 15.7295L12.4567 14.4734C12.399 14.4389 12.3184 14.4389 12.2608 14.4734L9.86389 15.7295C9.71408 15.8102 9.52971 15.6834 9.56428 15.5105L10.0252 12.8371C10.0367 12.768 10.0137 12.6988 9.9676 12.6527L8.02014 10.7629C7.89338 10.6477 7.96252 10.4287 8.13537 10.4057L10.8088 10.0254C10.878 10.0139 10.9356 9.96777 10.9701 9.91016L12.1686 7.47871C12.2492 7.31738 12.4682 7.31738 12.5373 7.47871ZM45.9323 7.47871L47.1307 9.91016C47.1653 9.96777 47.2229 10.0139 47.292 10.0254L49.977 10.4172C50.1498 10.4402 50.219 10.6477 50.0922 10.7744L48.1563 12.6643C48.1102 12.7104 48.0871 12.7795 48.0987 12.8486L48.5596 15.5221C48.5942 15.6949 48.4098 15.8217 48.26 15.741L45.8631 14.485C45.8055 14.4504 45.7248 14.4504 45.6672 14.485L43.2703 15.741C43.1205 15.8217 42.9362 15.6949 42.9707 15.5221L43.4317 12.8486C43.4432 12.7795 43.4201 12.7104 43.374 12.6643L41.4381 10.7744C41.3114 10.6592 41.3805 10.4402 41.5533 10.4172L44.2383 10.0254C44.3074 10.0139 44.3651 9.96777 44.3996 9.91016L45.5981 7.47871C45.6326 7.31738 45.8516 7.31738 45.9323 7.47871Z" fill="#EA6552"/>
<path d="M29.0502 26.2274C28.5202 26.2274 28.0938 25.801 28.0938 25.2709V18.8293C28.0938 18.2992 28.5202 17.8729 29.0502 17.8729C29.5803 17.8729 30.0067 18.2992 30.0067 18.8293V25.2709C30.0067 25.7895 29.5803 26.2274 29.0502 26.2274ZM42.3368 27.4834C42.21 27.4834 42.0717 27.4604 41.945 27.4027C41.461 27.1838 41.242 26.6191 41.4495 26.1352L44.5954 19.0252C44.8143 18.5412 45.379 18.3223 45.8629 18.5297C46.3469 18.7486 46.5659 19.3133 46.3584 19.7973L43.2126 26.9188C43.0512 27.276 42.7055 27.4834 42.3368 27.4834ZM36.2754 26.9994C36.1833 26.9994 36.1026 26.9879 36.0104 26.9649C35.5034 26.815 35.2038 26.285 35.3536 25.7779L38.0731 16.3172C38.2229 15.8102 38.753 15.5106 39.26 15.6604C39.767 15.8102 40.0667 16.3402 39.9168 16.8473L37.1973 26.308C37.0821 26.7229 36.7018 26.9994 36.2754 26.9994ZM22.021 27.0801C21.6061 27.0801 21.2143 26.8035 21.0991 26.3887L18.4487 17.1699C18.2989 16.6629 18.5985 16.1213 19.1055 15.983C19.6126 15.8332 20.1542 16.1328 20.2924 16.6399L22.9428 25.8586C23.0926 26.3656 22.793 26.9072 22.286 27.0455C22.2053 27.0686 22.1131 27.0801 22.021 27.0801ZM15.7637 27.4834C15.395 27.4834 15.0377 27.2645 14.8879 26.9072L11.7997 19.924C11.5807 19.44 11.7997 18.8754 12.2952 18.6565C12.7792 18.4375 13.3438 18.6565 13.5627 19.152L16.651 26.1352C16.87 26.6191 16.651 27.1838 16.1555 27.4027C16.0288 27.4604 15.902 27.4834 15.7637 27.4834Z" fill="#70C9E9"/>
<path d="M55.4854 55.9694C54.2408 57.5365 52.3164 58.5506 50.15 58.5506C48.6059 58.5506 47.1885 58.0321 46.0477 57.1793C44.3998 55.9348 43.3281 53.9643 43.3281 51.7403C43.3281 49.5739 44.3307 47.6494 45.9094 46.4049C44.976 47.5688 44.4229 49.0438 44.4229 50.634C44.4229 52.858 45.483 54.8285 47.1309 56.0731C48.2717 56.9373 49.7006 57.4444 51.2332 57.4444C52.8465 57.4444 54.3215 56.8912 55.4854 55.9694Z" fill="#58B4D9"/>
<path d="M56.9603 51.7402C56.9603 53.342 56.4071 54.817 55.4853 55.9693C54.3214 56.8912 52.8464 57.4443 51.2561 57.4443C49.712 57.4443 48.2946 56.9258 47.1538 56.073C45.506 54.8285 44.4458 52.858 44.4458 50.634C44.4458 49.0322 44.9989 47.5572 45.9323 46.4049C47.0962 45.4715 48.5712 44.9183 50.1614 44.9183C50.5417 44.9183 50.9104 44.9529 51.2677 45.0105C54.4942 45.5406 56.9603 48.3523 56.9603 51.7402Z" fill="#70C9E9"/>
<path d="M53.6417 50.7722H51.1181V48.2371C51.1181 47.707 50.6917 47.2806 50.1616 47.2806C49.6315 47.2806 49.2052 47.707 49.2052 48.2371V50.7722H46.6815C46.1515 50.7722 45.7251 51.1986 45.7251 51.7287C45.7251 52.2588 46.1515 52.6851 46.6815 52.6851H49.2052V55.2203C49.2052 55.7504 49.6315 56.1767 50.1616 56.1767C50.6917 56.1767 51.1181 55.7504 51.1181 55.2203V52.6851H53.6417C54.1718 52.6851 54.5981 52.2588 54.5981 51.7287C54.5981 51.1986 54.1718 50.7722 53.6417 50.7722Z" fill="#EA6552"/>
</svg>
