<svg width="61" height="61" viewBox="0 0 61 61" fill="none" xmlns="http://www.w3.org/2000/svg">
<g clip-path="url(#clip0_1952_11372)">
<path d="M44.2316 4.82949C44.2316 2.16775 46.3893 0.0101318 49.0509 0.0101318H11.5386C9.42198 0.0101318 7.70605 1.72605 7.70605 3.8427V47.486H44.2314L44.2316 4.82949Z" fill="#FFE07D"/>
<path d="M46.1408 0.0101318C43.4791 0.0101318 41.3214 2.16787 41.3214 4.82949V23.9414C41.3214 25.0659 40.5829 26.0663 39.5006 26.3715C31.5197 28.6219 25.6699 35.9555 25.6699 44.6564C25.6699 46.9439 26.0745 49.1369 26.8155 51.1679H44.2311V4.82949C44.2311 2.16775 46.3888 0.0101318 49.0504 0.0101318H46.1408Z" fill="#FFD064"/>
<path d="M38.4059 8.32159H14.2604C13.752 8.32159 13.3398 7.90955 13.3398 7.40103C13.3398 6.8925 13.7519 6.48047 14.2604 6.48047H38.4059C38.9143 6.48047 39.3265 6.8925 39.3265 7.40103C39.3265 7.90955 38.9143 8.32159 38.4059 8.32159ZM38.4059 17.5007H14.2604C13.752 17.5007 13.3398 17.0887 13.3398 16.5802C13.3398 16.0716 13.7519 15.6596 14.2604 15.6596H38.4059C38.9143 15.6596 39.3265 16.0716 39.3265 16.5802C39.3265 17.0887 38.9143 17.5007 38.4059 17.5007ZM38.4059 26.6801H14.2604C14.1395 26.6801 14.0198 26.6563 13.9081 26.6101C13.7964 26.5638 13.6949 26.496 13.6094 26.4105C13.524 26.325 13.4561 26.2235 13.4099 26.1119C13.3636 26.0002 13.3398 25.8804 13.3398 25.7596C13.3398 25.6387 13.3636 25.5189 13.4099 25.4072C13.4561 25.2956 13.524 25.1941 13.6094 25.1086C13.6949 25.0231 13.7964 24.9553 13.9081 24.909C14.0198 24.8628 14.1395 24.839 14.2604 24.839H38.4059C38.9143 24.839 39.3265 25.251 39.3265 25.7596C39.3265 26.2681 38.9143 26.6801 38.4059 26.6801ZM38.4059 35.8594H14.2604C13.752 35.8594 13.3398 35.4473 13.3398 34.9388C13.3398 34.4303 13.7519 34.0183 14.2604 34.0183H38.4059C38.9143 34.0183 39.3265 34.4303 39.3265 34.9388C39.3265 35.4473 38.9143 35.8594 38.4059 35.8594Z" fill="#2B4D66"/>
<path d="M39.828 51.1681H6.81378C3.05066 51.1681 0 48.1174 0 44.3542V43.1475C3.15808e-05 42.9943 0.0608846 42.8475 0.169179 42.7392C0.277473 42.6309 0.424342 42.57 0.577493 42.57H39.828V51.1681Z" fill="#EAB14D"/>
<path d="M25.6699 44.6566C25.6699 46.944 26.0745 49.137 26.8155 51.168H39.8278V42.5699H25.7845C25.7085 43.2629 25.6702 43.9595 25.6699 44.6566Z" fill="#E49542"/>
<path d="M44.6674 60.9886C53.6875 60.9886 60.9998 53.6763 60.9998 44.6562C60.9998 35.6361 53.6875 28.3238 44.6674 28.3238C35.6472 28.3238 28.335 35.6361 28.335 44.6562C28.335 53.6763 35.6472 60.9886 44.6674 60.9886Z" fill="#DD636E"/>
<path d="M44.6678 28.3238C44.2348 28.3238 43.8059 28.3409 43.3813 28.3741C51.8001 29.0301 58.4273 36.0691 58.4273 44.6562C58.4273 53.2433 51.8 60.2824 43.3813 60.9384C43.8059 60.9715 44.2348 60.9886 44.6678 60.9886C53.688 60.9886 61.0003 53.6763 61.0003 44.6562C61.0003 35.6361 53.688 28.3238 44.6678 28.3238Z" fill="#DA4A54"/>
<path d="M44.667 56.839C51.395 56.839 56.8492 51.3848 56.8492 44.6568C56.8492 37.9288 51.395 32.4747 44.667 32.4747C37.939 32.4747 32.4849 37.9288 32.4849 44.6568C32.4849 51.3848 37.939 56.839 44.667 56.839Z" fill="#F4FBFF"/>
<path d="M44.6672 32.4747C44.1027 32.4747 43.5474 32.514 43.0034 32.5882C48.9443 33.3996 53.5218 38.4932 53.5218 44.6568C53.5218 50.8204 48.9442 55.914 43.0034 56.7255C43.5474 56.7998 44.1027 56.839 44.6672 56.839C51.3952 56.839 56.8493 51.3848 56.8493 44.6567C56.8493 37.9288 51.3952 32.4747 44.6672 32.4747Z" fill="#DAF1F4"/>
<path d="M44.6669 37.1444C44.546 37.1444 44.4263 37.1206 44.3146 37.0744C44.2029 37.0281 44.1015 36.9603 44.016 36.8748C43.9305 36.7893 43.8627 36.6878 43.8164 36.5761C43.7702 36.4644 43.7464 36.3447 43.7464 36.2238V35.8022C43.7464 35.6813 43.7702 35.5615 43.8164 35.4499C43.8627 35.3382 43.9305 35.2367 44.016 35.1512C44.1015 35.0657 44.2029 34.9979 44.3146 34.9516C44.4263 34.9054 44.546 34.8816 44.6669 34.8816C44.7878 34.8816 44.9075 34.9054 45.0192 34.9516C45.1309 34.9979 45.2324 35.0657 45.3179 35.1512C45.4034 35.2367 45.4712 35.3382 45.5175 35.4499C45.5637 35.5615 45.5875 35.6813 45.5875 35.8022V36.2238C45.5875 36.3447 45.5637 36.4644 45.5175 36.5761C45.4712 36.6878 45.4034 36.7893 45.3179 36.8748C45.2324 36.9603 45.1309 37.0281 45.0192 37.0744C44.9075 37.1206 44.7878 37.1444 44.6669 37.1444ZM50.63 39.6143C50.4479 39.6144 50.2699 39.5604 50.1185 39.4592C49.9671 39.3581 49.8491 39.2143 49.7794 39.046C49.7097 38.8778 49.6915 38.6927 49.7271 38.5141C49.7627 38.3355 49.8504 38.1715 49.9792 38.0428L50.2774 37.7448C50.3629 37.6593 50.4644 37.5915 50.576 37.5453C50.6877 37.4991 50.8074 37.4753 50.9283 37.4753C51.0492 37.4754 51.1689 37.4992 51.2805 37.5455C51.3922 37.5918 51.4937 37.6596 51.5791 37.7451C51.6646 37.8306 51.7323 37.9321 51.7786 38.0438C51.8248 38.1555 51.8486 38.2752 51.8485 38.3961C51.8485 38.5169 51.8247 38.6366 51.7784 38.7483C51.7321 38.86 51.6643 38.9614 51.5788 39.0469L51.2806 39.3449C51.1953 39.4305 51.0938 39.4983 50.9822 39.5446C50.8705 39.5908 50.7508 39.6145 50.63 39.6143ZM53.5216 45.5774H53.0999C52.5915 45.5774 52.1794 45.1653 52.1794 44.6568C52.1794 44.1483 52.5914 43.7363 53.0999 43.7363H53.5216C54.03 43.7363 54.4422 44.1483 54.4422 44.6568C54.4422 45.1653 54.03 45.5774 53.5216 45.5774ZM36.2338 45.5774H35.8122C35.3038 45.5774 34.8916 45.1653 34.8916 44.6568C34.8916 44.1483 35.3036 43.7363 35.8122 43.7363H36.2338C36.7422 43.7363 37.1544 44.1483 37.1544 44.6568C37.1544 45.1653 36.7424 45.5774 36.2338 45.5774ZM50.9282 51.8387C50.8074 51.8388 50.6877 51.8151 50.576 51.7689C50.4643 51.7226 50.3629 51.6548 50.2775 51.5692L49.9793 51.2712C49.8938 51.1857 49.826 51.0843 49.7797 50.9726C49.7334 50.861 49.7096 50.7413 49.7095 50.6204C49.7095 50.4995 49.7333 50.3798 49.7795 50.2681C49.8257 50.1564 49.8935 50.0549 49.979 49.9694C50.0644 49.8839 50.1658 49.816 50.2775 49.7697C50.3892 49.7233 50.5089 49.6995 50.6298 49.6995C50.7507 49.6994 50.8704 49.7232 50.9821 49.7695C51.0938 49.8157 51.1953 49.8836 51.2807 49.9691L51.5789 50.2671C51.7077 50.3958 51.7954 50.5598 51.831 50.7384C51.8666 50.917 51.8484 51.1021 51.7787 51.2703C51.7091 51.4386 51.5911 51.5823 51.4397 51.6835C51.2883 51.7847 51.1103 51.8387 50.9282 51.8387ZM44.6669 54.4321C44.546 54.4322 44.4263 54.4084 44.3146 54.3621C44.2029 54.3159 44.1015 54.248 44.016 54.1626C43.9305 54.0771 43.8627 53.9756 43.8164 53.8639C43.7702 53.7522 43.7464 53.6325 43.7464 53.5116V53.0899C43.7464 52.969 43.7702 52.8493 43.8164 52.7376C43.8627 52.6259 43.9305 52.5244 44.016 52.4389C44.1015 52.3535 44.2029 52.2856 44.3146 52.2394C44.4263 52.1931 44.546 52.1693 44.6669 52.1693C44.7878 52.1693 44.9075 52.1931 45.0192 52.2394C45.1309 52.2856 45.2324 52.3535 45.3179 52.4389C45.4034 52.5244 45.4712 52.6259 45.5175 52.7376C45.5637 52.8493 45.5875 52.969 45.5875 53.0899V53.5116C45.5875 53.6325 45.5637 53.7522 45.5175 53.8639C45.4712 53.9756 45.4034 54.0771 45.3179 54.1626C45.2324 54.248 45.1309 54.3159 45.0192 54.3621C44.9075 54.4084 44.7878 54.4322 44.6669 54.4321ZM38.4058 51.8387C38.2237 51.8387 38.0457 51.7847 37.8943 51.6835C37.743 51.5824 37.625 51.4386 37.5553 51.2704C37.4856 51.1022 37.4674 50.9171 37.5029 50.7386C37.5384 50.56 37.626 50.396 37.7548 50.2672L38.0528 49.9692C38.1382 49.8833 38.2397 49.8152 38.3515 49.7686C38.4633 49.722 38.5832 49.6979 38.7043 49.6978C38.8254 49.6976 38.9453 49.7213 39.0572 49.7676C39.1692 49.8139 39.2708 49.8818 39.3565 49.9674C39.4421 50.053 39.51 50.1547 39.5563 50.2666C39.6025 50.3786 39.6263 50.4985 39.6261 50.6196C39.6259 50.7407 39.6019 50.8606 39.5553 50.9724C39.5087 51.0842 39.4405 51.1857 39.3547 51.2711L39.0566 51.5691C38.9712 51.6547 38.8698 51.7225 38.7581 51.7688C38.6464 51.8151 38.5267 51.8388 38.4058 51.8387ZM38.7038 39.6143C38.5829 39.6145 38.4631 39.5907 38.3514 39.5445C38.2397 39.4982 38.1382 39.4303 38.0528 39.3448L37.7548 39.0467C37.6689 38.9613 37.6007 38.8598 37.5541 38.7481C37.5076 38.6363 37.4835 38.5164 37.4833 38.3953C37.4832 38.2742 37.5069 38.1542 37.5532 38.0423C37.5994 37.9304 37.6673 37.8287 37.753 37.7431C37.8386 37.6574 37.9403 37.5895 38.0522 37.5433C38.1641 37.497 38.2841 37.4733 38.4052 37.4734C38.5263 37.4736 38.6462 37.4977 38.7579 37.5442C38.8697 37.5908 38.9712 37.659 39.0566 37.7449L39.3547 38.0429C39.4834 38.1717 39.571 38.3357 39.6066 38.5142C39.6421 38.6928 39.6238 38.8779 39.5542 39.0461C39.4845 39.2142 39.3665 39.358 39.2152 39.4592C39.0638 39.5603 38.8859 39.6143 38.7038 39.6143Z" fill="#365E7D"/>
<path d="M47.1771 45.5774H44.6681C44.5472 45.5774 44.4275 45.5536 44.3158 45.5074C44.2041 45.4611 44.1026 45.3933 44.0171 45.3078C43.9317 45.2223 43.8639 45.1208 43.8176 45.0092C43.7713 44.8975 43.7475 44.7777 43.7476 44.6569V39.7984C43.7475 39.6775 43.7713 39.5578 43.8176 39.4461C43.8639 39.3344 43.9317 39.2329 44.0171 39.1475C44.1026 39.062 44.2041 38.9942 44.3158 38.9479C44.4275 38.9017 44.5472 38.8779 44.6681 38.8779C44.789 38.8779 44.9087 38.9017 45.0204 38.9479C45.1321 38.9942 45.2336 39.062 45.3191 39.1475C45.4046 39.2329 45.4724 39.3344 45.5186 39.4461C45.5649 39.5578 45.5887 39.6775 45.5887 39.7984V43.7363H47.1771C47.6855 43.7363 48.0977 44.1483 48.0977 44.6569C48.0977 45.1654 47.6857 45.5774 47.1771 45.5774Z" fill="#2B4D66"/>
<path d="M53.0124 12.1037H44.2314V4.82949C44.2314 2.16775 46.3892 0.0101318 49.0508 0.0101318C51.7125 0.0101318 53.8702 2.16787 53.8702 4.82949V11.2458C53.8702 11.3584 53.848 11.47 53.8049 11.5741C53.7618 11.6782 53.6986 11.7727 53.619 11.8524C53.5393 11.9321 53.4448 11.9953 53.3407 12.0384C53.2366 12.0815 53.125 12.1037 53.0124 12.1037Z" fill="#EAB14D"/>
<path d="M50.6208 0.273149C50.1157 0.098873 49.5851 0.00998337 49.0508 0.010132C46.3892 0.010132 44.2314 2.16787 44.2314 4.82949V12.1037H47.3714V4.82949C47.3713 2.71773 48.7302 0.924496 50.6208 0.273149Z" fill="#E49542"/>
</g>
<defs>
<clipPath id="clip0_1952_11372">
<rect width="61" height="61" fill="white"/>
</clipPath>
</defs>
</svg>
