<svg width="64" height="64" viewBox="0 0 64 64" fill="none" xmlns="http://www.w3.org/2000/svg">
<g clip-path="url(#clip0_2889_1320)">
<path d="M32 64C49.6731 64 64 49.6731 64 32C64 14.3269 49.6731 0 32 0C14.3269 0 0 14.3269 0 32C0 49.6731 14.3269 64 32 64Z" fill="#E0E0D1"/>
<g opacity="0.2">
<path d="M32 12C19.85 12 10 21.85 10 34C10 46.15 19.85 56 32 56C44.15 56 54 46.15 54 34C54 21.85 44.15 12 32 12ZM48 34C48 37.329 46.976 40.423 45.229 42.986L23.014 20.771C25.577 19.024 28.671 18 32 18C40.822 18 48 25.178 48 34ZM16 34C16 30.671 17.024 27.577 18.771 25.014L40.986 47.229C38.423 48.976 35.329 50 32 50C23.178 50 16 42.822 16 34Z" fill="#231F20"/>
</g>
<path d="M32 16C40.822 16 48 23.178 48 32C48 40.822 40.822 48 32 48C23.178 48 16 40.822 16 32C16 23.178 23.178 16 32 16ZM32 10C19.85 10 10 19.85 10 32C10 44.15 19.85 54 32 54C44.15 54 54 44.15 54 32C54 19.85 44.15 10 32 10Z" fill="#C75C5C"/>
<path d="M20.1203 15.8795L15.8784 20.1214L43.8782 48.1211L48.1201 43.8793L20.1203 15.8795Z" fill="#C75C5C"/>
</g>
<defs>
<clipPath id="clip0_2889_1320">
<rect width="64" height="64" fill="white"/>
</clipPath>
</defs>
</svg>
