<svg width="78" height="78" viewBox="0 0 78 78" fill="none" xmlns="http://www.w3.org/2000/svg">
<path d="M18.9172 27.2249H12.2583C10.9121 27.2249 9.8208 28.3162 9.8208 29.6624V69.3662C9.8208 70.7124 10.9121 71.8037 12.2583 71.8037H18.9172C20.2634 71.8037 21.3547 70.7124 21.3547 69.3662V29.6624C21.3547 28.3162 20.2634 27.2249 18.9172 27.2249Z" fill="#F1F2F2"/>
<path d="M18.9172 27.2249H18.3079V66.3194C18.3079 66.9658 18.0511 67.5858 17.5939 68.0429C17.1368 68.5001 16.5168 68.7569 15.8704 68.7569H9.8208V69.3662C9.8208 70.0127 10.0776 70.6327 10.5347 71.0898C10.9918 71.5469 11.6118 71.8037 12.2583 71.8037H18.9172C19.5637 71.8037 20.1837 71.5469 20.6408 71.0898C21.0979 70.6327 21.3547 70.0127 21.3547 69.3662V29.6624C21.3547 29.0159 21.0979 28.396 20.6408 27.9388C20.1837 27.4817 19.5637 27.2249 18.9172 27.2249Z" fill="#E6E7E8"/>
<path d="M37.3311 71.8064V55.4063H40.6698V71.8064H37.3311Z" fill="#D1D3D4"/>
<path d="M29.2808 10.8251H48.7189V55.4064H29.2808V10.8251Z" fill="#8C3F0A"/>
<path d="M31.1085 51.4071C30.9876 51.4074 30.8692 51.3718 30.7685 51.3048C30.6679 51.2377 30.5893 51.1423 30.5429 51.0307C30.4965 50.919 30.4842 50.796 30.5078 50.6774C30.5313 50.5587 30.5895 50.4497 30.675 50.3642C30.7605 50.2787 30.8695 50.2205 30.9882 50.1969C31.1068 50.1734 31.2298 50.1856 31.3415 50.2321C31.4532 50.2785 31.5486 50.357 31.6156 50.4577C31.6826 50.5584 31.7182 50.6767 31.7179 50.7977C31.7174 50.9592 31.6531 51.1139 31.5389 51.2281C31.4247 51.3422 31.27 51.4066 31.1085 51.4071ZM31.1085 48.9696C30.9466 48.9689 30.7915 48.9041 30.6773 48.7893C30.563 48.6745 30.499 48.5191 30.4991 48.3571V24.9724C30.4991 24.8108 30.5633 24.6558 30.6776 24.5415C30.7919 24.4272 30.9469 24.363 31.1085 24.363C31.2701 24.363 31.4251 24.4272 31.5394 24.5415C31.6537 24.6558 31.7179 24.8108 31.7179 24.9724V48.3571C31.7181 48.5191 31.654 48.6745 31.5398 48.7893C31.4255 48.9041 31.2705 48.9689 31.1085 48.9696Z" fill="#995222"/>
<path d="M45.6723 10.8251V52.3592H29.2808V55.4061H48.7192V10.8251H45.6723Z" fill="#7C3108"/>
<path d="M47.1958 10.8251V53.8826H29.2808V55.4061H48.7192V10.8251H47.1958Z" fill="#6D2E03"/>
<path d="M38.4934 19.3253C38.4215 19.2994 38.3453 19.288 38.2691 19.2917C38.1929 19.2954 38.1182 19.3142 38.0492 19.3469C37.9803 19.3796 37.9184 19.4256 37.8673 19.4823C37.8162 19.539 37.7769 19.6052 37.7514 19.6772L36.1302 24.2234C36.108 24.2861 36.0967 24.3522 36.0967 24.4187V55.4054H37.2578V24.519L38.8453 20.0672C38.8709 19.9953 38.8821 19.9192 38.8783 19.843C38.8745 19.7669 38.8557 19.6922 38.823 19.6233C38.7904 19.5544 38.7444 19.4926 38.6879 19.4415C38.6313 19.3903 38.5652 19.3508 38.4934 19.3253Z" fill="#F79219"/>
<path d="M32.5874 22.8517H29.2803V20.2195H32.587C32.6972 20.2195 32.8038 20.2587 32.8878 20.3301L33.8899 21.1832C33.9412 21.2269 33.9823 21.2811 34.0106 21.3422C34.0388 21.4033 34.0534 21.4698 34.0534 21.5371C34.0534 21.6044 34.0388 21.671 34.0106 21.7321C33.9823 21.7932 33.9412 21.8474 33.8899 21.891L32.8878 22.7442C32.8035 22.8144 32.6971 22.8525 32.5874 22.8517Z" fill="#6D2E03"/>
<path d="M38.9834 26.6061C39.4345 26.6061 39.8002 26.2404 39.8002 25.7892C39.8002 25.3381 39.4345 24.9724 38.9834 24.9724C38.5322 24.9724 38.1665 25.3381 38.1665 25.7892C38.1665 26.2404 38.5322 26.6061 38.9834 26.6061Z" fill="#FFA91A"/>
<path d="M42.7802 26.6061C43.2314 26.6061 43.5971 26.2404 43.5971 25.7892C43.5971 25.3381 43.2314 24.9724 42.7802 24.9724C42.3291 24.9724 41.9634 25.3381 41.9634 25.7892C41.9634 26.2404 42.3291 26.6061 42.7802 26.6061Z" fill="#FFA91A"/>
<path d="M38.9834 37.9187C39.4345 37.9187 39.8002 37.553 39.8002 37.1019C39.8002 36.6507 39.4345 36.285 38.9834 36.285C38.5322 36.285 38.1665 36.6507 38.1665 37.1019C38.1665 37.553 38.5322 37.9187 38.9834 37.9187Z" fill="#FFA91A"/>
<path d="M42.7802 37.9198C43.2314 37.9198 43.5971 37.5541 43.5971 37.103C43.5971 36.6518 43.2314 36.2861 42.7802 36.2861C42.3291 36.2861 41.9634 36.6518 41.9634 37.103C41.9634 37.5541 42.3291 37.9198 42.7802 37.9198Z" fill="#FFA91A"/>
<path d="M38.9839 49.2322C39.435 49.2322 39.8007 48.8665 39.8007 48.4153C39.8007 47.9642 39.435 47.5984 38.9839 47.5984C38.5327 47.5984 38.167 47.9642 38.167 48.4153C38.167 48.8665 38.5327 49.2322 38.9839 49.2322Z" fill="#FFA91A"/>
<path d="M42.7802 49.2324C43.2314 49.2324 43.5971 48.8667 43.5971 48.4156C43.5971 47.9644 43.2314 47.5987 42.7802 47.5987C42.3291 47.5987 41.9634 47.9644 41.9634 48.4156C41.9634 48.8667 42.3291 49.2324 42.7802 49.2324Z" fill="#FFA91A"/>
<path d="M48.7192 18.538V40.3774H53.5598V14.5194C53.5598 14.0342 53.4642 13.5538 53.2785 13.1055C53.0928 12.6573 52.8207 12.25 52.4776 11.9069C52.1344 11.5639 51.7271 11.2918 51.2788 11.1061C50.8305 10.9205 50.3501 10.825 49.8649 10.8251H48.7192V18.538Z" fill="#8C3F0A"/>
<path d="M51.8294 11.3953C52.2012 11.9829 52.3986 12.664 52.3985 13.3593V39.2172H48.7197V40.3784H53.5603V14.5193C53.5599 13.8946 53.4009 13.2802 53.0982 12.7338C52.7954 12.1874 52.3588 11.7268 51.8294 11.3953Z" fill="#7C3108"/>
<path d="M51.6043 34.2904H53.5601V37.3982H51.6043C51.5433 37.3982 51.4829 37.3862 51.4265 37.3628C51.3701 37.3395 51.3189 37.3052 51.2757 37.2621C51.2326 37.2189 51.1984 37.1677 51.175 37.1114C51.1517 37.055 51.1397 36.9946 51.1397 36.9335V34.7562C51.1395 34.6951 51.1514 34.6346 51.1747 34.5781C51.198 34.5215 51.2322 34.4702 51.2753 34.4269C51.3185 34.3836 51.3698 34.3493 51.4262 34.3259C51.4827 34.3024 51.5432 34.2904 51.6043 34.2904Z" fill="#FFA91A"/>
<path d="M52.3975 34.2904H53.5586V37.3967H52.3975V34.2904Z" fill="#F79219"/>
<path d="M29.2797 18.538V40.3774H24.4395V14.5194C24.4395 14.0343 24.535 13.5538 24.7207 13.1056C24.9064 12.6574 25.1785 12.2501 25.5216 11.907C25.8647 11.564 26.272 11.2919 26.7202 11.1062C27.1685 10.9206 27.6489 10.8251 28.1341 10.8251H29.2797V18.538Z" fill="#8C3F0A"/>
<path d="M28.1341 10.8251H28.1189V39.2156H24.4395V40.3767H29.2797V10.8251H28.1341Z" fill="#7C3108"/>
<path d="M26.3952 37.3982H24.4395V34.2904H26.3952C26.4563 34.2904 26.5167 34.3024 26.5731 34.3257C26.6294 34.3491 26.6807 34.3833 26.7238 34.4265C26.7669 34.4696 26.8012 34.5208 26.8245 34.5772C26.8479 34.6336 26.8599 34.694 26.8599 34.755V36.9323C26.8601 36.9934 26.8482 37.054 26.8249 37.1105C26.8016 37.167 26.7674 37.2184 26.7242 37.2617C26.6811 37.3049 26.6298 37.3393 26.5733 37.3627C26.5169 37.3861 26.4564 37.3982 26.3952 37.3982Z" fill="#FFA91A"/>
<path d="M26.3952 34.2915H25.6984V35.771C25.6985 35.832 25.6865 35.8925 25.6632 35.9488C25.6398 36.0052 25.6057 36.0564 25.5625 36.0996C25.5194 36.1427 25.4682 36.177 25.4118 36.2003C25.3555 36.2237 25.2951 36.2357 25.2341 36.2357H24.4395V37.3968H26.3952C26.4562 37.3969 26.5167 37.3849 26.573 37.3616C26.6294 37.3383 26.6806 37.3041 26.7238 37.261C26.7669 37.2178 26.8012 37.1666 26.8245 37.1103C26.8479 37.0539 26.8599 36.9935 26.8599 36.9325V34.7549C26.8596 34.6319 26.8106 34.5139 26.7235 34.427C26.6363 34.3402 26.5183 34.2914 26.3952 34.2915Z" fill="#F79219"/>
<path d="M37.4723 23.8069L43.8707 18.8813C43.925 18.8395 43.9694 18.7862 44.0006 18.7252C44.0319 18.6643 44.0493 18.5971 44.0516 18.5286C44.0538 18.4601 44.0409 18.392 44.0138 18.3291C43.9866 18.2662 43.9459 18.21 43.8945 18.1647L42.2031 16.6748C42.1437 16.6224 42.0986 16.5556 42.0722 16.4808C42.0458 16.406 42.039 16.3258 42.0524 16.2476C42.0658 16.1694 42.099 16.096 42.1488 16.0343C42.1986 15.9726 42.2633 15.9247 42.3369 15.8951L43.2948 15.51C43.3576 15.4848 43.4142 15.4463 43.4604 15.3969C43.5067 15.3476 43.5416 15.2887 43.5627 15.2245L44.8975 11.1785C44.9307 11.0781 44.9285 10.9693 44.8915 10.8703C44.8544 10.7712 44.7846 10.6878 44.6937 10.6337L41.6541 8.82634C41.5824 8.78346 41.5003 8.76082 41.4168 8.76083H36.5838C36.5002 8.76082 36.4182 8.78346 36.3464 8.82634L33.3078 10.6331C33.2169 10.6872 33.1471 10.7706 33.11 10.8697C33.0729 10.9687 33.0708 11.0775 33.104 11.1779L34.4388 15.2239C34.4599 15.2881 34.4948 15.347 34.541 15.3963C34.5873 15.4456 34.6438 15.4842 34.7066 15.5094L36.0881 16.0648C36.1705 16.0979 36.2416 16.1539 36.2931 16.2262C36.3447 16.2985 36.3744 16.3841 36.3787 16.4728L36.7252 23.4614C36.7293 23.5461 36.7565 23.6281 36.8039 23.6985C36.8513 23.7688 36.9171 23.8248 36.9941 23.8605C37.0711 23.8961 37.1563 23.9099 37.2406 23.9005C37.3249 23.891 37.4051 23.8587 37.4723 23.8069ZM38.5631 16.6891L36.6795 11.446C36.6542 11.3759 36.6463 11.3007 36.6562 11.2269C36.6661 11.153 36.6937 11.0826 36.7366 11.0217C36.7795 10.9607 36.8364 10.911 36.9026 10.8766C36.9687 10.8423 37.0422 10.8244 37.1167 10.8245H40.8839C40.9584 10.8244 41.0318 10.8423 41.098 10.8766C41.1642 10.911 41.2211 10.9607 41.264 11.0217C41.3068 11.0826 41.3344 11.153 41.3444 11.2269C41.3543 11.3007 41.3463 11.3759 41.3211 11.446L39.4375 16.6891C39.4051 16.7791 39.3458 16.8569 39.2675 16.912C39.1893 16.967 39.0959 16.9965 39.0003 16.9965C38.9046 16.9965 38.8113 16.967 38.733 16.912C38.6548 16.8569 38.5954 16.7791 38.5631 16.6891Z" fill="#FFA91A"/>
<path d="M42.8816 17.2756C42.8959 17.3587 42.8872 17.4441 42.8566 17.5227C42.8259 17.6012 42.7744 17.6699 42.7076 17.7214L36.6699 22.3691L36.7242 23.4623C36.7284 23.547 36.7557 23.6289 36.8031 23.6991C36.8505 23.7694 36.9163 23.8253 36.9933 23.8609C37.0703 23.8964 37.1555 23.9102 37.2398 23.9007C37.324 23.8913 37.4041 23.8589 37.4712 23.8072L43.8697 18.8813C43.924 18.8395 43.9683 18.7862 43.9996 18.7253C44.0309 18.6643 44.0483 18.5972 44.0505 18.5287C44.0528 18.4603 44.0399 18.3922 44.0127 18.3293C43.9856 18.2664 43.9448 18.2103 43.8935 18.165L42.8816 17.2756ZM44.6917 10.6334L43.7213 10.0545L42.3996 14.0636C42.3784 14.1278 42.3434 14.1866 42.2972 14.2359C42.2509 14.2852 42.1945 14.3238 42.1318 14.3491L41.1735 14.7342C41.0999 14.7638 41.0352 14.8117 40.9854 14.8734C40.9356 14.9351 40.9024 15.0086 40.889 15.0867C40.8756 15.1649 40.8824 15.2451 40.9088 15.3199C40.9352 15.3947 40.9803 15.4615 41.0398 15.5139L42.0537 16.4069C42.0344 16.3023 42.0519 16.1942 42.1031 16.101C42.1544 16.0078 42.2363 15.9351 42.335 15.8954L43.2929 15.5102C43.3557 15.4851 43.4122 15.4466 43.4584 15.3973C43.5047 15.348 43.5396 15.2893 43.5607 15.2251L44.8956 11.1788C44.9289 11.0783 44.9268 10.9694 44.8898 10.8702C44.8527 10.771 44.7828 10.6874 44.6917 10.6334Z" fill="#F79219"/>
<path d="M51.8894 68.4676H26.1088C25.1869 68.4676 24.4395 69.215 24.4395 70.137C24.4395 71.059 25.1869 71.8064 26.1088 71.8064H51.8894C52.8113 71.8064 53.5587 71.059 53.5587 70.137C53.5587 69.215 52.8113 68.4676 51.8894 68.4676Z" fill="#E6E7E8"/>
<path d="M52.0301 68.4735C52.0341 68.5198 52.0362 68.5664 52.0362 68.6136C52.0362 69.0564 51.8603 69.481 51.5472 69.7941C51.2342 70.1072 50.8096 70.283 50.3668 70.283H24.586C24.5391 70.283 24.4921 70.2809 24.4461 70.2769C24.4812 70.694 24.6716 71.0826 24.9796 71.3659C25.2877 71.6492 25.6909 71.8064 26.1094 71.8065H51.8902C52.1095 71.8065 52.3265 71.7633 52.5291 71.6794C52.7316 71.5955 52.9157 71.4725 53.0707 71.3175C53.2257 71.1625 53.3487 70.9785 53.4325 70.7759C53.5164 70.5734 53.5596 70.3563 53.5596 70.1371C53.5596 69.7186 53.4023 69.3153 53.1191 69.0072C52.8358 68.6991 52.4471 68.5086 52.0301 68.4735ZM40.6695 7.86354V13.2596L39.4355 16.6903C39.4032 16.78 39.344 16.8575 39.2661 16.9123C39.1881 16.9671 39.0951 16.9965 38.9998 16.9965C38.9045 16.9965 38.8116 16.9671 38.7336 16.9123C38.6556 16.8575 38.5964 16.78 38.5641 16.6903L37.3301 13.2596V7.86354C37.3301 7.42071 37.5061 6.99601 37.8192 6.68289C38.1323 6.36976 38.557 6.19385 38.9998 6.19385C39.4427 6.19385 39.8673 6.36976 40.1805 6.68289C40.4936 6.99601 40.6695 7.42071 40.6695 7.86354ZM15.353 31.5506H21.3554V33.9783H15.353C15.1914 33.9783 15.0364 33.9141 14.9221 33.7998C14.8079 33.6855 14.7437 33.5305 14.7437 33.3689V32.1599C14.7437 31.9983 14.8079 31.8433 14.9221 31.729C15.0364 31.6148 15.1914 31.5506 15.353 31.5506ZM15.353 38.1242H21.3554V40.5519H15.353C15.1914 40.5519 15.0364 40.4877 14.9221 40.3735C14.8079 40.2592 14.7437 40.1042 14.7437 39.9426V38.7336C14.7437 38.5719 14.8079 38.4169 14.9221 38.3027C15.0364 38.1884 15.1914 38.1242 15.353 38.1242ZM15.353 44.6978H21.3554V47.1256H15.353C15.1914 47.1256 15.0364 47.0614 14.9221 46.9471C14.8079 46.8328 14.7437 46.6778 14.7437 46.5162V45.3072C14.7437 45.1456 14.8079 44.9906 14.9221 44.8763C15.0364 44.762 15.1914 44.6978 15.353 44.6978ZM15.353 51.2714H21.3554V53.6992H15.353C15.1914 53.6992 15.0364 53.635 14.9221 53.5207C14.8079 53.4064 14.7437 53.2514 14.7437 53.0898V51.8808C14.7437 51.7192 14.8079 51.5642 14.9221 51.4499C15.0364 51.3356 15.1914 51.2714 15.353 51.2714ZM15.353 57.8451H21.3554V60.2728H15.353C15.1914 60.2728 15.0364 60.2086 14.9221 60.0943C14.8079 59.9801 14.7437 59.8251 14.7437 59.6635V58.4545C14.7437 58.2928 14.8079 58.1378 14.9221 58.0236C15.0364 57.9093 15.1914 57.8451 15.353 57.8451ZM15.353 64.4187H21.3554V66.8465H15.353C15.1914 66.8465 15.0364 66.7823 14.9221 66.668C14.8079 66.5537 14.7437 66.3987 14.7437 66.2371V65.0281C14.7437 64.8665 14.8079 64.7115 14.9221 64.5972C15.0364 64.4829 15.1914 64.4187 15.353 64.4187Z" fill="#D1D3D4"/>
<path d="M60.9469 71.4774L56.8967 63.9331C56.6549 63.4829 56.5283 62.9798 56.5283 62.4687V29.7014C56.5283 29.0446 56.7892 28.4147 57.2537 27.9503C57.7181 27.4858 58.348 27.2249 59.0048 27.2249H63.9898C64.6466 27.2249 65.2765 27.4858 65.741 27.9503C66.2054 28.4147 66.4663 29.0446 66.4663 29.7014V62.3127C66.4663 62.8159 66.3436 63.3115 66.1089 63.7566L62.0401 71.4732C61.9878 71.5725 61.9093 71.6558 61.8133 71.714C61.7172 71.7722 61.6071 71.8032 61.4948 71.8037C61.3825 71.8041 61.2721 71.774 61.1756 71.7165C61.0791 71.659 61 71.5764 60.9469 71.4774Z" fill="#FFA91A"/>
<path d="M63.9894 27.2249H60.8935C61.5503 27.2249 62.1803 27.4858 62.6447 27.9502C63.1092 28.4147 63.3702 29.0446 63.3703 29.7014V62.3127C63.3702 62.8159 63.2476 63.3115 63.0129 63.7566L59.9355 69.5935L60.9468 71.4774C60.9999 71.5764 61.079 71.659 61.1755 71.7165C61.272 71.774 61.3824 71.8041 61.4947 71.8037C61.607 71.8032 61.7171 71.7722 61.8132 71.714C61.9092 71.6558 61.9877 71.5725 62.04 71.4732L66.1088 63.7566C66.3435 63.3115 66.4662 62.8159 66.4662 62.3127V29.7014C66.4662 29.3762 66.4021 29.0541 66.2777 28.7536C66.1532 28.4531 65.9708 28.1801 65.7408 27.9502C65.5108 27.7202 65.2377 27.5378 64.9372 27.4133C64.6367 27.2889 64.3147 27.2249 63.9894 27.2249Z" fill="#F79219"/>
<path d="M56.5283 36.1642H66.4663V39.6313H56.5283V36.1642Z" fill="#EF7816"/>
<path d="M60.9467 71.4783C60.9998 71.5773 61.0789 71.6599 61.1754 71.7174C61.2719 71.7749 61.3822 71.805 61.4945 71.8046C61.6069 71.8041 61.717 71.7731 61.813 71.7149C61.9091 71.6567 61.9875 71.5734 62.0399 71.4741L66.1087 63.7576C66.3189 63.3591 66.4395 62.9196 66.4621 62.4696H56.5293C56.5293 62.9807 56.6558 63.4838 56.8977 63.934L60.9467 71.4783Z" fill="#FFD2C0"/>
<path d="M59.8403 69.4153L60.9476 71.4777C61.0007 71.5767 61.0798 71.6593 61.1763 71.7168C61.2728 71.7743 61.3831 71.8044 61.4955 71.804C61.6078 71.8035 61.7179 71.7725 61.8139 71.7143C61.91 71.6561 61.9884 71.5728 62.0408 71.4734L63.1261 69.4153H59.8403Z" fill="#808285"/>
</svg>
