<svg width="29" height="12" viewBox="0 0 29 12" fill="none" xmlns="http://www.w3.org/2000/svg">
<g clip-path="url(#clip0_1952_4847)">
<path d="M20.7638 6.89303H6.03181C5.53881 6.89303 5.13281 6.4897 5.13281 5.99994C5.13281 5.51018 5.53881 5.10684 6.03181 5.10684H20.7638L17.4868 1.85137C17.1388 1.50565 17.1388 0.929463 17.4868 0.583749C17.8348 0.238034 18.4148 0.238034 18.7628 0.583749L23.6058 5.39494C23.9538 5.74065 23.9538 6.31684 23.6058 6.66256L18.7628 11.4737C18.4148 11.8195 17.8348 11.8195 17.4868 11.4737C17.1388 11.128 17.1388 10.5518 17.4868 10.2061L20.7638 6.89303Z" fill="white"/>
</g>
<defs>
<clipPath id="clip0_1952_4847">
<rect width="29" height="11" fill="white" transform="translate(0 0.5)"/>
</clipPath>
</defs>
</svg>
