<svg width="83" height="83" viewBox="0 0 83 83" fill="none" xmlns="http://www.w3.org/2000/svg">
<circle cx="41.5" cy="41.5" r="41.5" fill="white"/>
<circle cx="41.5" cy="41.5" r="36.5" fill="#E47F46"/>
<path d="M26.4844 27.4844C25.6763 27.4844 24.9013 27.8054 24.3299 28.3768C23.7585 28.9482 23.4375 29.7232 23.4375 30.5312V36.0156C23.4375 36.1772 23.5017 36.3322 23.616 36.4465C23.7303 36.5608 23.8853 36.625 24.0469 36.625C24.2085 36.625 24.3635 36.5608 24.4778 36.4465C24.592 36.3322 24.6562 36.1772 24.6562 36.0156V30.5312C24.6562 30.0464 24.8489 29.5814 25.1917 29.2386C25.5345 28.8957 25.9995 28.7031 26.4844 28.7031H33.4922C33.6538 28.7031 33.8088 28.6389 33.9231 28.5246C34.0374 28.4104 34.1016 28.2554 34.1016 28.0938C34.1016 27.9321 34.0374 27.7771 33.9231 27.6629C33.8088 27.5486 33.6538 27.4844 33.4922 27.4844H26.4844ZM47.5078 27.4844C47.3462 27.4844 47.1912 27.5486 47.0769 27.6629C46.9626 27.7771 46.8984 27.9321 46.8984 28.0938C46.8984 28.2554 46.9626 28.4104 47.0769 28.5246C47.1912 28.6389 47.3462 28.7031 47.5078 28.7031H54.5156C55.0005 28.7031 55.4655 28.8957 55.8083 29.2386C56.1511 29.5814 56.3438 30.0464 56.3438 30.5312V36.0156C56.3438 36.1772 56.408 36.3322 56.5222 36.4465C56.6365 36.5608 56.7915 36.625 56.9531 36.625C57.1147 36.625 57.2697 36.5608 57.384 36.4465C57.4983 36.3322 57.5625 36.1772 57.5625 36.0156V30.5312C57.5625 29.7232 57.2415 28.9482 56.6701 28.3768C56.0987 27.8054 55.3237 27.4844 54.5156 27.4844H47.5078ZM24.6562 46.9844C24.6562 46.8228 24.592 46.6678 24.4778 46.5535C24.3635 46.4392 24.2085 46.375 24.0469 46.375C23.8853 46.375 23.7303 46.4392 23.616 46.5535C23.5017 46.6678 23.4375 46.8228 23.4375 46.9844V52.4688C23.4375 53.2768 23.7585 54.0518 24.3299 54.6232C24.9013 55.1946 25.6763 55.5156 26.4844 55.5156H33.4922C33.6538 55.5156 33.8088 55.4514 33.9231 55.3371C34.0374 55.2229 34.1016 55.0679 34.1016 54.9062C34.1016 54.7446 34.0374 54.5896 33.9231 54.4754C33.8088 54.3611 33.6538 54.2969 33.4922 54.2969H26.4844C25.9995 54.2969 25.5345 54.1043 25.1917 53.7614C24.8489 53.4186 24.6562 52.9536 24.6562 52.4688V46.9844ZM57.5625 46.9844C57.5625 46.8228 57.4983 46.6678 57.384 46.5535C57.2697 46.4392 57.1147 46.375 56.9531 46.375C56.7915 46.375 56.6365 46.4392 56.5222 46.5535C56.408 46.6678 56.3438 46.8228 56.3438 46.9844V52.4688C56.3438 52.9536 56.1511 53.4186 55.8083 53.7614C55.4655 54.1043 55.0005 54.2969 54.5156 54.2969H47.5078C47.3462 54.2969 47.1912 54.3611 47.0769 54.4754C46.9626 54.5896 46.8984 54.7446 46.8984 54.9062C46.8984 55.0679 46.9626 55.2229 47.0769 55.3371C47.1912 55.4514 47.3462 55.5156 47.5078 55.5156H54.5156C55.3237 55.5156 56.0987 55.1946 56.6701 54.6232C57.2415 54.0518 57.5625 53.2768 57.5625 52.4688V46.9844ZM30.1406 34.7969C30.1406 34.6353 30.0764 34.4803 29.9621 34.366C29.8479 34.2517 29.6929 34.1875 29.5312 34.1875C29.3696 34.1875 29.2146 34.2517 29.1004 34.366C28.9861 34.4803 28.9219 34.6353 28.9219 34.7969V48.2031C28.9219 48.3647 28.9861 48.5197 29.1004 48.634C29.2146 48.7483 29.3696 48.8125 29.5312 48.8125C29.6929 48.8125 29.8479 48.7483 29.9621 48.634C30.0764 48.5197 30.1406 48.3647 30.1406 48.2031V34.7969ZM33.1875 34.1875C33.3491 34.1875 33.5041 34.2517 33.6184 34.366C33.7327 34.4803 33.7969 34.6353 33.7969 34.7969V48.2031C33.7969 48.3647 33.7327 48.5197 33.6184 48.634C33.5041 48.7483 33.3491 48.8125 33.1875 48.8125C33.0259 48.8125 32.8709 48.7483 32.7566 48.634C32.6423 48.5197 32.5781 48.3647 32.5781 48.2031V34.7969C32.5781 34.6353 32.6423 34.4803 32.7566 34.366C32.8709 34.2517 33.0259 34.1875 33.1875 34.1875ZM37.4531 34.7969C37.4531 34.6353 37.3889 34.4803 37.2746 34.366C37.1604 34.2517 37.0054 34.1875 36.8438 34.1875C36.6821 34.1875 36.5271 34.2517 36.4129 34.366C36.2986 34.4803 36.2344 34.6353 36.2344 34.7969V48.2031C36.2344 48.3647 36.2986 48.5197 36.4129 48.634C36.5271 48.7483 36.6821 48.8125 36.8438 48.8125C37.0054 48.8125 37.1604 48.7483 37.2746 48.634C37.3889 48.5197 37.4531 48.3647 37.4531 48.2031V34.7969ZM40.5 34.1875C40.6616 34.1875 40.8166 34.2517 40.9309 34.366C41.0452 34.4803 41.1094 34.6353 41.1094 34.7969V48.2031C41.1094 48.3647 41.0452 48.5197 40.9309 48.634C40.8166 48.7483 40.6616 48.8125 40.5 48.8125C40.3384 48.8125 40.1834 48.7483 40.0691 48.634C39.9548 48.5197 39.8906 48.3647 39.8906 48.2031V34.7969C39.8906 34.6353 39.9548 34.4803 40.0691 34.366C40.1834 34.2517 40.3384 34.1875 40.5 34.1875ZM44.7656 34.7969C44.7656 34.6353 44.7014 34.4803 44.5871 34.366C44.4729 34.2517 44.3179 34.1875 44.1562 34.1875C43.9946 34.1875 43.8396 34.2517 43.7254 34.366C43.6111 34.4803 43.5469 34.6353 43.5469 34.7969V48.2031C43.5469 48.3647 43.6111 48.5197 43.7254 48.634C43.8396 48.7483 43.9946 48.8125 44.1562 48.8125C44.3179 48.8125 44.4729 48.7483 44.5871 48.634C44.7014 48.5197 44.7656 48.3647 44.7656 48.2031V34.7969ZM47.8125 34.1875C47.9741 34.1875 48.1291 34.2517 48.2434 34.366C48.3577 34.4803 48.4219 34.6353 48.4219 34.7969V48.2031C48.4219 48.3647 48.3577 48.5197 48.2434 48.634C48.1291 48.7483 47.9741 48.8125 47.8125 48.8125C47.6509 48.8125 47.4959 48.7483 47.3816 48.634C47.2673 48.5197 47.2031 48.3647 47.2031 48.2031V34.7969C47.2031 34.6353 47.2673 34.4803 47.3816 34.366C47.4959 34.2517 47.6509 34.1875 47.8125 34.1875ZM52.0781 34.7969C52.0781 34.6353 52.0139 34.4803 51.8996 34.366C51.7854 34.2517 51.6304 34.1875 51.4688 34.1875C51.3071 34.1875 51.1521 34.2517 51.0379 34.366C50.9236 34.4803 50.8594 34.6353 50.8594 34.7969V48.2031C50.8594 48.3647 50.9236 48.5197 51.0379 48.634C51.1521 48.7483 51.3071 48.8125 51.4688 48.8125C51.6304 48.8125 51.7854 48.7483 51.8996 48.634C52.0139 48.5197 52.0781 48.3647 52.0781 48.2031V34.7969Z" fill="white"/>
</svg>
