<svg width="50" height="50" viewBox="0 0 50 50" fill="none" xmlns="http://www.w3.org/2000/svg">
<path d="M16.6667 35.4167C15.8426 35.4167 15.037 35.661 14.3518 36.1189C13.6666 36.5767 13.1325 37.2274 12.8172 37.9888C12.5018 38.7502 12.4193 39.5879 12.5801 40.3962C12.7408 41.2045 13.1377 41.9469 13.7204 42.5296C14.3031 43.1123 15.0455 43.5092 15.8538 43.6699C16.662 43.8307 17.4998 43.7482 18.2612 43.4328C19.0225 43.1175 19.6733 42.5834 20.1311 41.8982C20.589 41.213 20.8333 40.4074 20.8333 39.5833C20.8322 38.4786 20.3929 37.4194 19.6117 36.6383C18.8306 35.8571 17.7714 35.4178 16.6667 35.4167ZM16.6667 41.6667C16.2546 41.6667 15.8518 41.5445 15.5092 41.3156C15.1666 41.0866 14.8996 40.7613 14.7419 40.3806C14.5842 39.9999 14.543 39.581 14.6234 39.1769C14.7038 38.7728 14.9022 38.4015 15.1935 38.1102C15.4849 37.8188 15.8561 37.6204 16.2602 37.54C16.6644 37.4596 17.0832 37.5009 17.4639 37.6586C17.8446 37.8163 18.17 38.0833 18.3989 38.4259C18.6278 38.7685 18.75 39.1713 18.75 39.5833C18.7493 40.1356 18.5296 40.6651 18.139 41.0557C17.7485 41.4462 17.219 41.6659 16.6667 41.6667Z" fill="black"/>
<path d="M37.4997 35.4167C36.6756 35.4167 35.87 35.661 35.1848 36.1189C34.4996 36.5767 33.9655 37.2274 33.6502 37.9888C33.3348 38.7502 33.2523 39.5879 33.4131 40.3962C33.5738 41.2045 33.9707 41.9469 34.5534 42.5296C35.1361 43.1123 35.8785 43.5092 36.6868 43.6699C37.4951 43.8307 38.3328 43.7482 39.0942 43.4328C39.8555 43.1175 40.5063 42.5834 40.9641 41.8982C41.422 41.213 41.6663 40.4074 41.6663 39.5833C41.6652 38.4786 41.2259 37.4194 40.4447 36.6383C39.6636 35.8571 38.6044 35.4178 37.4997 35.4167ZM37.4997 41.6667C37.0876 41.6667 36.6848 41.5445 36.3422 41.3156C35.9996 41.0866 35.7326 40.7613 35.5749 40.3806C35.4172 39.9999 35.376 39.581 35.4564 39.1769C35.5368 38.7728 35.7352 38.4015 36.0265 38.1102C36.3179 37.8188 36.6891 37.6204 37.0932 37.54C37.4974 37.4596 37.9163 37.5009 38.2969 37.6586C38.6776 37.8163 39.003 38.0833 39.2319 38.4259C39.4608 38.7685 39.583 39.1713 39.583 39.5833C39.5823 40.1356 39.3626 40.6651 38.972 41.0557C38.5815 41.4462 38.052 41.6659 37.4997 41.6667Z" fill="black"/>
<path d="M31.2497 19.7916C31.2497 20.0679 31.1399 20.3329 30.9446 20.5282C30.7492 20.7236 30.4843 20.8333 30.208 20.8333H27.083V23.9583C27.083 24.2346 26.9733 24.4995 26.7779 24.6949C26.5826 24.8902 26.3176 25 26.0413 25C25.7651 25 25.5001 24.8902 25.3048 24.6949C25.1094 24.4995 24.9997 24.2346 24.9997 23.9583V20.8333H21.8747C21.5984 20.8333 21.3335 20.7236 21.1381 20.5282C20.9428 20.3329 20.833 20.0679 20.833 19.7916C20.833 19.5154 20.9428 19.2504 21.1381 19.0551C21.3335 18.8597 21.5984 18.75 21.8747 18.75H24.9997V15.625C24.9997 15.3487 25.1094 15.0838 25.3048 14.8884C25.5001 14.6931 25.7651 14.5833 26.0413 14.5833C26.3176 14.5833 26.5826 14.6931 26.7779 14.8884C26.9733 15.0838 27.083 15.3487 27.083 15.625V18.75H30.208C30.4843 18.75 30.7492 18.8597 30.9446 19.0551C31.1399 19.2504 31.2497 19.5154 31.2497 19.7916Z" fill="black"/>
<path d="M45.3134 16.1998L44.1557 26.6164C44.0151 27.8908 43.4091 29.0685 42.4538 29.9236C41.4985 30.7787 40.2611 31.251 38.979 31.25H17.7082C16.3273 31.2483 15.0035 30.6991 14.0272 29.7227C13.0508 28.7463 12.5015 27.4225 12.4998 26.0417V15.625C12.4989 14.7965 12.1694 14.0022 11.5835 13.4163C10.9977 12.8305 10.2034 12.5009 9.37484 12.5H5.20817C4.9319 12.5 4.66695 12.3902 4.4716 12.1949C4.27625 11.9995 4.1665 11.7346 4.1665 11.4583C4.1665 11.1821 4.27625 10.9171 4.4716 10.7218C4.66695 10.5264 4.9319 10.4167 5.20817 10.4167H9.37484C10.7557 10.4183 12.0795 10.9676 13.0559 11.944C14.0323 12.9204 14.5815 14.2442 14.5832 15.625V26.0417C14.5841 26.8702 14.9137 27.6645 15.4995 28.2503C16.0853 28.8362 16.8797 29.1657 17.7082 29.1667H38.979C39.7482 29.1672 40.4906 28.8838 41.0637 28.3707C41.6369 27.8576 42.0004 27.1511 42.0846 26.3864L43.2421 15.9698C43.2904 15.533 43.2461 15.091 43.1123 14.6725C42.9784 14.2539 42.7579 13.8683 42.4651 13.5406C42.1735 13.2113 41.8148 12.9481 41.4133 12.7686C41.0117 12.5892 40.5764 12.4976 40.1365 12.5H34.3748C34.0986 12.5 33.8336 12.3902 33.6383 12.1949C33.4429 11.9995 33.3332 11.7346 33.3332 11.4583C33.3332 11.1821 33.4429 10.9171 33.6383 10.7218C33.8336 10.5264 34.0986 10.4167 34.3748 10.4167H40.1365C40.8689 10.4169 41.5931 10.5715 42.2617 10.8705C42.9303 11.1694 43.5284 11.606 44.0169 12.1517C44.5054 12.6974 44.8733 13.34 45.0967 14.0375C45.3201 14.735 45.394 15.4718 45.3134 16.1998Z" fill="black"/>
</svg>
