<svg width="76" height="45" viewBox="0 0 76 45" fill="none" xmlns="http://www.w3.org/2000/svg">
<path d="M68.5746 1.31529C63.1762 1.31529 55.2244 4.67107 46.762 8.3916C45.5948 8.02684 44.3546 7.58914 43.1874 7.15142C30.3479 2.48252 17.0707 -2.3323 1.38608 1.24234L1.31313 1.31529L0 4.67107L0.364758 4.45222C0.364758 4.45222 3.57463 2.62842 10.4321 2.40957C16.7789 2.26366 27.6487 3.43089 43.4792 9.85064C39.3939 11.6744 35.3086 13.4982 31.3692 14.9573C30.7856 14.6655 30.275 14.3736 29.6913 14.0089C23.8552 10.799 18.7486 8.02684 14.3715 8.02684C11.2346 8.02684 8.68125 10.5802 8.68125 13.6441C8.68125 16.781 11.2346 19.3344 14.3715 19.3344C19.3322 19.3344 25.2413 17.6565 31.3692 15.322C34.725 17.1458 38.2267 18.9696 42.0202 20.5016C41.5825 20.7934 41.1448 21.0122 40.707 21.2311C38.5185 22.5442 36.257 23.8574 33.9955 24.9516C29.9831 22.7631 26.2626 20.9393 23.0527 20.9393C21.0101 20.9393 19.3322 22.6172 19.3322 24.5869C19.3322 26.6295 21.0101 28.3074 23.0527 28.3074C26.7733 28.3074 30.4209 26.9943 33.9955 25.2434C34.5791 25.5353 35.6734 26.1918 35.6734 26.1918C37.716 27.359 39.8316 28.4533 41.9472 29.4746C40.8529 30.1312 39.7587 30.8607 38.7373 31.6632C37.5701 32.3927 36.4758 33.1952 35.3816 33.8517C32.6824 32.7575 30.0561 32.1009 28.5971 32.1009C27.2839 32.1009 26.1897 33.1952 26.1897 34.5083C26.1897 35.8214 27.2839 36.9157 28.5971 36.9157C30.6397 36.9157 32.9742 35.7485 35.4545 34.1435C36.5488 34.6542 37.716 35.1649 38.8833 35.8214C41.5095 37.2805 45.9596 40.3444 45.9596 44.3568V44.5027L48.294 44.9404L48.367 44.7945C48.367 44.7215 48.6588 42.8978 47.4186 40.5633C46.2514 38.3747 43.6251 35.3108 37.2783 32.9763C37.789 32.6116 38.3726 32.2468 38.8833 31.882C39.9775 31.0796 41.1448 30.3501 42.239 29.6206C45.1571 30.9337 48.0752 31.882 50.7744 31.882C52.4523 31.882 53.7654 30.496 53.7654 28.891C53.7654 27.2861 52.4523 25.9 50.7744 25.9C48.1481 25.9 45.1571 27.432 42.239 29.2558C40.1234 28.3074 37.9349 27.0672 35.8193 25.9C35.8193 25.9 34.798 25.3893 34.2873 25.0975C36.5488 24.0033 38.7373 22.7631 40.8529 21.5229C41.3636 21.2311 41.8743 20.9393 42.312 20.6475C47.0538 22.5442 52.1605 23.8574 57.7048 23.8574C60.2581 23.8574 62.3007 21.8147 62.3007 19.2614C62.3007 16.781 60.2581 14.7384 57.7048 14.7384C52.5982 14.7384 47.3456 17.4376 42.312 20.3557C38.5914 18.8237 35.0168 16.9999 31.734 15.1761C36.0381 13.4982 40.4882 11.5285 44.8653 9.55883C45.4489 9.26703 46.1055 9.04817 46.762 8.75636C54.2031 11.3826 61.3524 13.6441 68.5746 13.6441C73.0976 13.6441 75.5779 11.7474 75.5779 8.31865C75.5779 4.45221 72.441 1.31529 68.5746 1.31529ZM14.3715 19.0426C11.3805 19.0426 8.97306 16.6351 8.97306 13.6441C8.97306 10.7261 11.3805 8.31865 14.3715 8.31865C18.6756 8.31865 23.7093 11.0908 29.5454 14.3007C30.0561 14.5925 30.4938 14.8114 31.0045 15.1032C25.0224 17.4376 19.2592 19.0426 14.3715 19.0426ZM23.0527 28.0156C21.156 28.0156 19.624 26.4836 19.624 24.5869C19.624 22.7631 21.156 21.2311 23.0527 21.2311C26.1167 21.2311 29.7643 22.9819 33.7037 25.0975C30.202 26.7754 26.6274 28.0156 23.0527 28.0156ZM28.5971 36.6239C27.4298 36.6239 26.4815 35.6755 26.4815 34.5083C26.4815 33.3411 27.4298 32.3927 28.5971 32.3927C29.9831 32.3927 32.4635 32.9763 35.0898 34.0706C32.6824 35.5296 30.4938 36.6239 28.5971 36.6239ZM47.1268 40.6363C48.1481 42.6059 48.1481 44.1379 48.0752 44.6486L46.2514 44.2838C46.1784 39.7608 40.78 36.0403 35.7463 33.9976C36.184 33.7058 36.5488 33.414 36.9865 33.1952C43.3333 35.4567 46.0325 38.5207 47.1268 40.6363ZM50.7744 26.1918C52.2334 26.1918 53.4736 27.432 53.4736 28.891C53.4736 30.3501 52.2334 31.5902 50.7744 31.5902C48.1481 31.5902 45.376 30.6419 42.6038 29.4017C45.4489 27.6509 48.2211 26.1918 50.7744 26.1918ZM57.7048 15.0302C60.1122 15.0302 62.0089 16.927 62.0089 19.2614C62.0089 21.5959 60.1122 23.5656 57.7048 23.5656C52.3064 23.5656 47.3456 22.2524 42.6767 20.5016C47.7834 17.5106 52.6711 15.0302 57.7048 15.0302ZM43.844 9.70473C28.8159 3.57679 18.2379 2.11776 11.7452 2.11776C11.2346 2.11776 10.7969 2.11776 10.4321 2.11776C4.66891 2.33662 1.53199 3.5768 0.583614 4.0145L1.53199 1.53415C17.0707 -2.04048 30.3479 2.77432 43.1144 7.44323C44.2087 7.80799 45.303 8.17275 46.3243 8.61046C45.4489 8.97522 43.844 9.70473 43.844 9.70473ZM68.5746 13.3523C61.4983 13.3523 54.422 11.1638 47.1268 8.53751C55.5162 4.88993 63.2491 1.6071 68.5746 1.6071C72.2951 1.6071 75.2861 4.59812 75.2861 8.31865C75.2861 12.4769 71.6386 13.3523 68.5746 13.3523Z" fill="white"/>
</svg>
