<svg width="134" height="56" viewBox="0 0 134 56" fill="none" xmlns="http://www.w3.org/2000/svg">
<circle cx="28" cy="28" r="27.5" fill="white" stroke="#E7E7E7"/>
<rect width="30" height="30" transform="translate(13 13)" fill="white"/>
<path fill-rule="evenodd" clip-rule="evenodd" d="M41.8 28.3271C41.8 27.3077 41.7085 26.3276 41.5386 25.3867H28V30.9472H35.7364C35.4031 32.7441 34.3903 34.2665 32.8679 35.2859V38.8927H37.5136C40.2318 36.3901 41.8 32.7049 41.8 28.3271Z" fill="#4285F4"/>
<path fill-rule="evenodd" clip-rule="evenodd" d="M28.0003 42.3752C31.8816 42.3752 35.1355 41.088 37.514 38.8925L32.8682 35.2857C31.581 36.1482 29.9344 36.6579 28.0003 36.6579C24.2563 36.6579 21.0873 34.1292 19.9569 30.7314H15.1543V34.4559C17.5196 39.1539 22.381 42.3752 28.0003 42.3752Z" fill="#34A853"/>
<path fill-rule="evenodd" clip-rule="evenodd" d="M19.9565 30.7312C19.669 29.8687 19.5057 28.9474 19.5057 28C19.5057 27.0526 19.669 26.1312 19.9565 25.2687V21.5443H15.154C14.1804 23.4849 13.625 25.6804 13.625 28C13.625 30.3196 14.1804 32.5151 15.154 34.4557L19.9565 30.7312Z" fill="#FBBC05"/>
<path fill-rule="evenodd" clip-rule="evenodd" d="M28.0003 19.3423C30.1108 19.3423 32.0057 20.0676 33.4955 21.492L37.6185 17.369C35.129 15.0494 31.875 13.625 28.0003 13.625C22.381 13.625 17.5196 16.8463 15.1543 21.5443L19.9569 25.2687C21.0873 21.871 24.2563 19.3423 28.0003 19.3423Z" fill="#EA4335"/>
<circle cx="106" cy="28" r="27.5" fill="white" stroke="#E7E7E7"/>
<rect width="32" height="32" transform="translate(90 11)" fill="white"/>
<path d="M118.374 35.5651C117.91 36.6365 117.361 37.6228 116.725 38.5295C115.858 39.7656 115.148 40.6212 114.601 41.0963C113.753 41.8762 112.844 42.2756 111.871 42.2983C111.173 42.2983 110.331 42.0996 109.35 41.6964C108.366 41.2951 107.462 41.0963 106.636 41.0963C105.769 41.0963 104.839 41.2951 103.844 41.6964C102.848 42.0996 102.046 42.3097 101.432 42.3305C100.499 42.3703 99.5692 41.9595 98.6409 41.0963C98.0484 40.5795 97.3073 39.6936 96.4195 38.4386C95.467 37.0984 94.6839 35.5443 94.0704 33.7725C93.4134 31.8587 93.084 30.0055 93.084 28.2114C93.084 26.1562 93.5281 24.3837 94.4176 22.8983C95.1166 21.7052 96.0466 20.764 97.2106 20.0731C98.3746 19.3822 99.6323 19.0301 100.987 19.0075C101.728 19.0075 102.7 19.2368 103.907 19.6873C105.112 20.1393 105.885 20.3686 106.224 20.3686C106.477 20.3686 107.336 20.1005 108.793 19.5661C110.17 19.0706 111.332 18.8654 112.284 18.9462C114.864 19.1544 116.803 20.1715 118.092 22.0039C115.784 23.402 114.643 25.3603 114.665 27.8724C114.686 29.8291 115.396 31.4574 116.791 32.7503C117.423 33.3504 118.13 33.8142 118.915 34.1435C118.745 34.6376 118.565 35.1108 118.374 35.5651ZM112.456 12.28C112.456 13.8137 111.896 15.2457 110.779 16.5711C109.431 18.1468 107.801 19.0573 106.033 18.9136C106.011 18.7297 105.998 18.536 105.998 18.3325C105.998 16.8602 106.639 15.2845 107.777 13.9962C108.345 13.3438 109.068 12.8015 109.944 12.3688C110.819 11.9426 111.646 11.7069 112.424 11.6665C112.447 11.8715 112.456 12.0766 112.456 12.28V12.28Z" fill="#212121"/>
</svg>
