<svg width="186" height="28" viewBox="0 0 186 28" fill="none" xmlns="http://www.w3.org/2000/svg">
<path d="M25.8052 6.63556C24.9273 7.02543 23.9843 7.28778 22.9945 7.40612C24.0054 6.80068 24.7805 5.84207 25.1456 4.69907C24.2008 5.25956 23.1532 5.66686 22.0377 5.88702C21.1451 4.93574 19.8737 4.34131 18.4665 4.34131C15.7641 4.34131 13.5735 6.53282 13.5735 9.23437C13.5735 9.61781 13.6175 9.99208 13.7001 10.3489C9.63353 10.1453 6.02841 8.19686 3.61399 5.23571C3.19385 5.95857 2.95259 6.79884 2.95259 7.69691C2.95259 9.39398 3.8158 10.892 5.1285 11.769C4.32675 11.7433 3.57179 11.5231 2.91223 11.1571C2.91223 11.1782 2.91223 11.1975 2.91223 11.2186C2.91223 13.5899 4.59829 15.5676 6.8375 16.0162C6.42745 16.1281 5.99447 16.1878 5.54772 16.1878C5.23308 16.1878 4.92577 16.1566 4.62764 16.1006C5.25051 18.0444 7.05766 19.4599 9.19871 19.4993C7.52458 20.812 5.41471 21.5945 3.12138 21.5945C2.72693 21.5945 2.33706 21.5716 1.95361 21.5257C4.11944 22.9136 6.69072 23.7236 9.45465 23.7236C18.4555 23.7236 23.3761 16.2676 23.3761 9.80128C23.3761 9.58937 23.3715 9.37839 23.3623 9.16832C24.3191 8.47756 25.1493 7.61619 25.8052 6.63556Z" fill="#212121"/>
<path d="M88.4112 3.02393C84.8713 3.02393 81.9917 5.90614 81.9917 9.44705V18.6204C81.9917 22.1604 84.8739 25.0399 88.4148 25.0399H97.5882C101.128 25.0399 104.008 22.1577 104.008 18.6168V9.44347C104.008 5.90348 101.125 3.02393 97.5846 3.02393H88.4112ZM99.421 6.69326C99.9274 6.69326 100.338 7.10422 100.338 7.61059C100.338 8.11696 99.9274 8.52793 99.421 8.52793C98.9147 8.52793 98.5037 8.11696 98.5037 7.61059C98.5037 7.10422 98.9147 6.69326 99.421 6.69326ZM92.9997 8.52793C96.0352 8.52793 98.5037 10.9965 98.5037 14.0319C98.5037 17.0674 96.0352 19.5359 92.9997 19.5359C89.9642 19.5359 87.4957 17.0674 87.4957 14.0319C87.4957 10.9965 89.9642 8.52793 92.9997 8.52793ZM92.9997 10.3626C92.0265 10.3626 91.0932 10.7492 90.4051 11.4373C89.717 12.1254 89.3304 13.0588 89.3304 14.0319C89.3304 15.0051 89.717 15.9384 90.4051 16.6265C91.0932 17.3147 92.0265 17.7013 92.9997 17.7013C93.9729 17.7013 94.9062 17.3147 95.5943 16.6265C96.2824 15.9384 96.669 15.0051 96.669 14.0319C96.669 13.0588 96.2824 12.1254 95.5943 11.4373C94.9062 10.7492 93.9729 10.3626 92.9997 10.3626V10.3626Z" fill="#212121"/>
<path d="M172.12 3.94128C168.28 3.94128 163.296 4.90341 163.296 4.90341L163.284 4.91774C161.535 5.19745 160.195 6.70028 160.195 8.52795V14.032V14.0337V19.536V19.5377C160.197 20.4106 160.509 21.2543 161.077 21.9173C161.645 22.5803 162.43 23.0192 163.293 23.1551L163.296 23.1605C163.296 23.1605 168.28 24.1244 172.12 24.1244C175.96 24.1244 180.944 23.1605 180.944 23.1605L180.946 23.1587C181.809 23.023 182.595 22.5838 183.164 21.92C183.732 21.2562 184.045 20.4115 184.045 19.5377V19.536V14.0337V14.032V8.52795C184.044 7.65477 183.732 6.81066 183.164 6.14729C182.596 5.48393 181.81 5.04479 180.948 4.90878L180.944 4.90341C180.944 4.90341 175.96 3.94128 172.12 3.94128ZM169.368 9.81079L176.707 14.032L169.368 18.2531V9.81079Z" fill="#212121"/>
</svg>
