<svg width="34" height="45" viewBox="0 0 34 45" fill="none" xmlns="http://www.w3.org/2000/svg">
<path d="M14.02 2.83992L8.63 7.03992C7.73 7.73992 7 9.22992 7 10.3599V17.7699C7 20.0899 8.89 21.9899 11.21 21.9899H22.79C25.11 21.9899 27 20.0899 27 17.7799V10.4999C27 9.28992 26.19 7.73992 25.2 7.04992L19.02 2.71992C17.62 1.73992 15.37 1.78992 14.02 2.83992Z" stroke="#E47F46" stroke-width="1.5" stroke-linecap="round" stroke-linejoin="round"/>
<path d="M17 17.99V14.99" stroke="#E47F46" stroke-width="1.5" stroke-linecap="round" stroke-linejoin="round"/>
<path d="M1.63813 32.6C1.77413 32.6 1.89013 32.648 1.98613 32.744C2.08213 32.832 2.13013 32.948 2.13013 33.092V40.508C2.13013 40.644 2.07813 40.76 1.97413 40.856C1.87813 40.952 1.76213 41 1.62613 41C1.47413 41 1.35413 40.952 1.26613 40.856C1.17813 40.76 1.13413 40.644 1.13413 40.508V33.092C1.13413 32.948 1.18213 32.832 1.27813 32.744C1.37413 32.648 1.49413 32.6 1.63813 32.6ZM7.17013 32.6C7.31413 32.6 7.43013 32.648 7.51813 32.744C7.61413 32.832 7.66213 32.948 7.66213 33.092V40.508C7.66213 40.644 7.61413 40.76 7.51813 40.856C7.42213 40.952 7.30213 41 7.15813 41C7.02213 41 6.90613 40.952 6.81013 40.856C6.71413 40.76 6.66613 40.644 6.66613 40.508V33.092C6.66613 32.948 6.71413 32.832 6.81013 32.744C6.91413 32.648 7.03413 32.6 7.17013 32.6ZM1.59013 36.26H7.18213L7.17013 37.196H1.55413L1.59013 36.26ZM15.4948 37.88C15.4948 38.504 15.3548 39.06 15.0748 39.548C14.8028 40.036 14.4308 40.42 13.9588 40.7C13.4948 40.98 12.9708 41.12 12.3868 41.12C11.8028 41.12 11.2748 40.98 10.8028 40.7C10.3308 40.42 9.95484 40.036 9.67484 39.548C9.40284 39.06 9.26684 38.504 9.26684 37.88C9.26684 37.256 9.40284 36.7 9.67484 36.212C9.95484 35.724 10.3308 35.34 10.8028 35.06C11.2748 34.78 11.8028 34.64 12.3868 34.64C12.9708 34.64 13.4948 34.78 13.9588 35.06C14.4308 35.34 14.8028 35.724 15.0748 36.212C15.3548 36.7 15.4948 37.256 15.4948 37.88ZM14.5348 37.88C14.5348 37.416 14.4388 37.008 14.2468 36.656C14.0628 36.304 13.8068 36.028 13.4788 35.828C13.1588 35.628 12.7948 35.528 12.3868 35.528C11.9788 35.528 11.6108 35.628 11.2828 35.828C10.9628 36.028 10.7068 36.304 10.5148 36.656C10.3228 37.008 10.2268 37.416 10.2268 37.88C10.2268 38.336 10.3228 38.74 10.5148 39.092C10.7068 39.444 10.9628 39.724 11.2828 39.932C11.6108 40.132 11.9788 40.232 12.3868 40.232C12.7948 40.232 13.1588 40.132 13.4788 39.932C13.8068 39.724 14.0628 39.444 14.2468 39.092C14.4388 38.74 14.5348 38.336 14.5348 37.88ZM19.9028 34.7C20.4468 34.7 20.8868 34.84 21.2228 35.12C21.5668 35.392 21.7948 35.78 21.9068 36.284H21.7268L21.8108 36.068C21.9068 35.844 22.0708 35.628 22.3028 35.42C22.5348 35.212 22.8028 35.04 23.1068 34.904C23.4108 34.768 23.7268 34.7 24.0548 34.7C24.5828 34.7 24.9988 34.816 25.3028 35.048C25.6068 35.272 25.8228 35.576 25.9508 35.96C26.0868 36.336 26.1548 36.76 26.1548 37.232V40.508C26.1548 40.644 26.1068 40.76 26.0108 40.856C25.9228 40.952 25.8108 41 25.6748 41C25.5308 41 25.4148 40.952 25.3268 40.856C25.2388 40.76 25.1948 40.644 25.1948 40.508V37.256C25.1948 36.944 25.1468 36.664 25.0508 36.416C24.9628 36.16 24.8148 35.96 24.6068 35.816C24.4068 35.664 24.1308 35.588 23.7788 35.588C23.4508 35.588 23.1508 35.664 22.8788 35.816C22.6068 35.96 22.3908 36.16 22.2308 36.416C22.0708 36.664 21.9908 36.944 21.9908 37.256V40.508C21.9908 40.644 21.9468 40.76 21.8588 40.856C21.7708 40.952 21.6548 41 21.5108 41C21.3748 41 21.2588 40.952 21.1628 40.856C21.0748 40.76 21.0308 40.644 21.0308 40.508V37.22C21.0308 36.916 20.9868 36.644 20.8988 36.404C20.8188 36.156 20.6788 35.96 20.4788 35.816C20.2788 35.664 20.0028 35.588 19.6508 35.588C19.3308 35.588 19.0388 35.664 18.7748 35.816C18.5108 35.96 18.2988 36.156 18.1388 36.404C17.9788 36.644 17.8988 36.916 17.8988 37.22V40.508C17.8988 40.644 17.8508 40.76 17.7548 40.856C17.6668 40.952 17.5548 41 17.4188 41C17.2828 41 17.1668 40.952 17.0708 40.856C16.9828 40.76 16.9388 40.644 16.9388 40.508V35.276C16.9388 35.14 16.9828 35.028 17.0708 34.94C17.1668 34.844 17.2828 34.796 17.4188 34.796C17.5628 34.796 17.6788 34.844 17.7668 34.94C17.8548 35.028 17.8988 35.14 17.8988 35.276V36.188L17.6348 36.476C17.6668 36.268 17.7468 36.06 17.8748 35.852C18.0108 35.644 18.1828 35.452 18.3908 35.276C18.5988 35.1 18.8308 34.96 19.0868 34.856C19.3428 34.752 19.6148 34.7 19.9028 34.7ZM30.799 41.12C30.159 41.12 29.599 40.984 29.119 40.712C28.639 40.44 28.263 40.068 27.991 39.596C27.727 39.116 27.595 38.564 27.595 37.94C27.595 37.244 27.731 36.652 28.003 36.164C28.283 35.668 28.643 35.292 29.083 35.036C29.531 34.772 30.003 34.64 30.499 34.64C30.867 34.64 31.223 34.708 31.567 34.844C31.911 34.98 32.215 35.18 32.479 35.444C32.743 35.7 32.955 36.012 33.115 36.38C33.275 36.74 33.359 37.144 33.367 37.592C33.367 37.72 33.319 37.828 33.223 37.916C33.127 38.004 33.015 38.048 32.887 38.048H28.147L27.931 37.22H32.551L32.359 37.388V37.124C32.327 36.796 32.215 36.516 32.023 36.284C31.839 36.044 31.611 35.86 31.339 35.732C31.075 35.604 30.795 35.54 30.499 35.54C30.259 35.54 30.019 35.584 29.779 35.672C29.547 35.752 29.335 35.888 29.143 36.08C28.959 36.264 28.807 36.504 28.687 36.8C28.575 37.096 28.519 37.452 28.519 37.868C28.519 38.332 28.611 38.74 28.795 39.092C28.987 39.444 29.251 39.724 29.587 39.932C29.923 40.132 30.315 40.232 30.763 40.232C31.043 40.232 31.287 40.196 31.495 40.124C31.703 40.052 31.883 39.964 32.035 39.86C32.187 39.748 32.315 39.636 32.419 39.524C32.523 39.452 32.623 39.416 32.719 39.416C32.839 39.416 32.935 39.456 33.007 39.536C33.087 39.616 33.127 39.712 33.127 39.824C33.127 39.96 33.063 40.08 32.935 40.184C32.711 40.432 32.407 40.652 32.023 40.844C31.639 41.028 31.231 41.12 30.799 41.12Z" fill="#E47F46"/>
</svg>
