<svg width="25" height="25" viewBox="0 0 25 25" fill="none" xmlns="http://www.w3.org/2000/svg">
<path d="M12.333 6.93994V10.2699" stroke="#212121" stroke-width="1.5" stroke-miterlimit="10" stroke-linecap="round"/>
<path d="M12.3529 2.5C8.67291 2.5 5.69291 5.48 5.69291 9.16V11.26C5.69291 11.94 5.41291 12.96 5.06291 13.54L3.79291 15.66C3.01291 16.97 3.55291 18.43 4.99291 18.91C9.77291 20.5 14.9429 20.5 19.7229 18.91C21.0729 18.46 21.6529 16.88 20.9229 15.66L19.6529 13.54C19.3029 12.96 19.0229 11.93 19.0229 11.26V9.16C19.0129 5.5 16.0129 2.5 12.3529 2.5Z" stroke="#212121" stroke-width="1.5" stroke-miterlimit="10" stroke-linecap="round"/>
<path d="M15.6629 19.3201C15.6629 21.1501 14.1629 22.6501 12.3329 22.6501C11.4229 22.6501 10.5829 22.2701 9.98293 21.6701C9.38293 21.0701 9.00293 20.2301 9.00293 19.3201" stroke="#212121" stroke-width="1.5" stroke-miterlimit="10"/>
</svg>
