<svg width="29" height="12" viewBox="0 0 29 12" fill="none" xmlns="http://www.w3.org/2000/svg">
<g clip-path="url(#clip0_1952_6502)">
<path d="M20.7638 6.89279H6.03181C5.53881 6.89279 5.13281 6.48946 5.13281 5.99969C5.13281 5.50993 5.53881 5.1066 6.03181 5.1066H20.7638L17.4868 1.85112C17.1388 1.50541 17.1388 0.929219 17.4868 0.583504C17.8348 0.23779 18.4148 0.23779 18.7628 0.583504L23.6058 5.39469C23.9538 5.74041 23.9538 6.3166 23.6058 6.66231L18.7628 11.4735C18.4148 11.8192 17.8348 11.8192 17.4868 11.4735C17.1388 11.1278 17.1388 10.5516 17.4868 10.2059L20.7638 6.89279Z" fill="#E47F46"/>
</g>
<defs>
<clipPath id="clip0_1952_6502">
<rect width="29" height="11" fill="white" transform="translate(0 0.5)"/>
</clipPath>
</defs>
</svg>
