<svg width="97" height="25" viewBox="0 0 97 25" fill="none" xmlns="http://www.w3.org/2000/svg">
<rect width="24" height="24" transform="translate(0.532227 0.583252)" fill="white"/>
<circle cx="12.5322" cy="12.5833" r="12" fill="#333333"/>
<path d="M9.77723 13.9966H10.4572C10.4639 14.1099 10.4906 14.2499 10.5372 14.4166C10.5839 14.5766 10.6739 14.7333 10.8072 14.8866C10.9406 15.0399 11.1339 15.1733 11.3872 15.2866C11.6406 15.3933 11.9772 15.4466 12.3972 15.4466C12.9239 15.4466 13.3439 15.3466 13.6572 15.1466C13.9772 14.9466 14.1372 14.6299 14.1372 14.1966C14.1372 13.8499 14.0372 13.5733 13.8372 13.3666C13.6372 13.1599 13.3839 12.9866 13.0772 12.8466C12.7772 12.6999 12.4506 12.5699 12.0972 12.4566C11.7439 12.3433 11.4139 12.2066 11.1072 12.0466C10.8072 11.8866 10.5572 11.6866 10.3572 11.4466C10.1572 11.2066 10.0572 10.8899 10.0572 10.4966C10.0572 10.1966 10.1172 9.92993 10.2372 9.6966C10.3639 9.46327 10.5306 9.26993 10.7372 9.1166C10.9506 8.96327 11.1939 8.8466 11.4672 8.7666C11.7472 8.6866 12.0406 8.6466 12.3472 8.6466C12.6406 8.6466 12.9206 8.68327 13.1872 8.7566C13.4606 8.82327 13.7039 8.9266 13.9172 9.0666C14.1306 9.19993 14.3072 9.3666 14.4472 9.5666C14.5872 9.75993 14.6772 9.97993 14.7172 10.2266H14.0372C13.9839 9.83327 13.8039 9.5466 13.4972 9.3666C13.1972 9.17993 12.8306 9.0866 12.3972 9.0866C12.1372 9.0866 11.9072 9.11993 11.7072 9.1866C11.5072 9.2466 11.3372 9.32993 11.1972 9.4366C11.0639 9.5366 10.9606 9.6566 10.8872 9.7966C10.8206 9.9366 10.7872 10.0866 10.7872 10.2466C10.7872 10.5333 10.8906 10.7633 11.0972 10.9366C11.3039 11.1099 11.5606 11.2633 11.8672 11.3966C12.1806 11.5299 12.5172 11.6566 12.8772 11.7766C13.2439 11.8966 13.5806 12.0466 13.8872 12.2266C14.2006 12.3999 14.4606 12.6199 14.6672 12.8866C14.8739 13.1466 14.9772 13.4833 14.9772 13.8966C14.9772 14.1966 14.9172 14.4699 14.7972 14.7166C14.6772 14.9633 14.5072 15.1733 14.2872 15.3466C14.0672 15.5199 13.8006 15.6533 13.4872 15.7466C13.1806 15.8399 12.8339 15.8866 12.4472 15.8866C12.0672 15.8866 11.7172 15.8433 11.3972 15.7566C11.0772 15.6633 10.7972 15.5366 10.5572 15.3766C10.3239 15.2099 10.1372 15.0099 9.99723 14.7766C9.86389 14.5433 9.79056 14.2833 9.77723 13.9966Z" fill="#F9F9F9"/>
<circle cx="48.5322" cy="12.5833" r="11.5" stroke="#DEDEDE"/>
<path d="M45.2804 8.7666L48.4904 14.7766H48.5304L51.7704 8.7666H52.4604V15.7666H51.5504V10.0966H51.5104L48.3504 15.8866H48.1704L45.0804 10.0566H45.0404V15.7666H44.6004V8.7666H45.2804Z" fill="#555555"/>
<circle cx="84.5322" cy="12.5833" r="11.5" stroke="#DEDEDE"/>
<path d="M82.7244 15.7666V8.7666H83.6344V15.2166H87.2444V15.7666H82.7244Z" fill="#555555"/>
</svg>
