<svg width="17" height="18" viewBox="0 0 17 18" fill="none" xmlns="http://www.w3.org/2000/svg">
<path d="M8.5002 17.6696C6.83718 17.6696 5.2115 17.1764 3.82874 16.2525C2.44599 15.3286 1.36826 14.0154 0.731852 12.4789C0.09544 10.9425 -0.0710742 9.25186 0.253366 7.62079C0.577806 5.98972 1.37863 4.49149 2.55456 3.31555C3.7305 2.13961 5.22873 1.33879 6.8598 1.01435C8.49087 0.689912 10.1815 0.856426 11.718 1.49284C13.2544 2.12925 14.5676 3.20698 15.4915 4.58973C16.4155 5.97248 16.9086 7.59816 16.9086 9.26119C16.9063 11.4905 16.0197 13.6279 14.4433 15.2043C12.8669 16.7807 10.7295 17.6673 8.5002 17.6696ZM8.5002 2.22559C7.10869 2.22559 5.74843 2.63822 4.59143 3.4113C3.43443 4.18438 2.53266 5.28319 2.00015 6.56878C1.46765 7.85437 1.32832 9.26899 1.59979 10.6338C1.87126 11.9985 2.54133 13.2522 3.52528 14.2361C4.50923 15.2201 5.76285 15.8901 7.12762 16.1616C8.4924 16.4331 9.90702 16.2937 11.1926 15.7612C12.4782 15.2287 13.577 14.327 14.3501 13.17C15.1232 12.013 15.5358 10.6527 15.5358 9.26119C15.5358 8.33726 15.3538 7.42238 15.0002 6.56878C14.6467 5.71518 14.1284 4.93958 13.4751 4.28627C12.8218 3.63295 12.0462 3.11471 11.1926 2.76114C10.339 2.40757 9.42413 2.22559 8.5002 2.22559ZM8.5002 14.4658C8.31816 14.4658 8.14357 14.3935 8.01484 14.2648C7.88612 14.136 7.8138 13.9615 7.8138 13.7794V9.94759H3.98197C3.79993 9.94759 3.62534 9.87527 3.49661 9.74654C3.36789 9.61782 3.29557 9.44323 3.29557 9.26119C3.29557 9.07914 3.36789 8.90455 3.49661 8.77583C3.62534 8.6471 3.79993 8.57479 3.98197 8.57479H7.8138V4.74296C7.8138 4.56091 7.88612 4.38633 8.01484 4.2576C8.14357 4.12888 8.31816 4.05656 8.5002 4.05656C8.68225 4.05656 8.85683 4.12888 8.98556 4.2576C9.11428 4.38633 9.1866 4.56091 9.1866 4.74296V8.57479H13.0184C13.2005 8.57479 13.3751 8.6471 13.5038 8.77583C13.6325 8.90455 13.7048 9.07914 13.7048 9.26119C13.7048 9.44323 13.6325 9.61782 13.5038 9.74654C13.3751 9.87527 13.2005 9.94759 13.0184 9.94759H9.1866V13.7794C9.1866 13.9615 9.11428 14.136 8.98556 14.2648C8.85683 14.3935 8.68225 14.4658 8.5002 14.4658Z" fill="#E47F46"/>
</svg>
